<?xml version="1.0" standalone="no"?>
<!DOCTYPE svg PUBLIC "-//W3C//DTD SVG 1.1//EN" "http://www.w3.org/Graphics/SVG/1.1/DTD/svg11.dtd" >
<!--
2013-9-30: Created.
-->
<svg>
<metadata>
Created by iconfont
</metadata>
<defs>

<font id="iconfont" horiz-adv-x="1024" >
  <font-face
    font-family="iconfont"
    font-weight="500"
    font-stretch="normal"
    units-per-em="1024"
    ascent="896"
    descent="-128"
  />
    <missing-glyph />
    
    <glyph glyph-name="denglu" unicode="&#58988;" d="M911.401267 410.823258L462.774899 827.025907c-22.991364 21.222798-59.541739 4.126655-59.541738-27.11802v-218.712723h-360.787565c-22.991364 0-42.445596-19.454231-42.445596-42.445596v-312.446747c0-21.222798 19.454231-40.087507 42.445596-40.087507h360.787565v-218.712723c0-30.655153 36.550374-47.751295 59.541738-27.11802l448.626368 416.202648c15.327576 15.917098 15.327576 38.908463 0 54.236039zM943.824986-128h-257.031664v109.0616H943.824986c68.974093 0 126.747265 57.773172 126.747265 126.747266v552.382268c0 68.974093-57.773172 126.747265-126.747265 126.747266h-257.031664v109.0616H943.824986c130.284398 0 235.808866-105.524467 235.808865-235.808866V107.808866c0.589522-130.284398-104.934945-235.808866-235.808865-235.808866z"  horiz-adv-x="1179" />

    
    <glyph glyph-name="denglu1" unicode="&#60053;" d="M728.7 384.1c0-9-3.3-16.8-9.9-23.5L435.4 77.2c-6.5-6.5-14.5-9.9-23.5-9.9s-16.8 3.3-23.5 9.9c-6.5 6.5-9.9 14.4-9.9 23.5v150H145.4c-9 0-16.8 3.3-23.5 9.9-6.5 6.5-9.9 14.4-9.9 23.5v200c0 9 3.3 16.8 9.9 23.5 6.5 6.5 14.4 9.9 23.5 9.9h233.3v150c0 9 3.3 16.8 9.9 23.5 6.5 6.5 14.4 9.9 23.5 9.9 9 0 16.8-3.3 23.5-9.9L719 407.6c6.3-6.8 9.7-14.5 9.7-23.5zM912 567.4v-366.6c0-41.3-14.7-76.7-44.1-106.1s-64.7-44.1-106.1-44.1H595.2c-4.5 0-8.5 1.6-11.7 4.9-3.3 3.3-4.9 7.2-4.9 11.7 0 1.4-0.2 4.8-0.5 10.4-0.3 5.6-0.4 10.2-0.2 13.8 0.2 3.6 0.6 7.8 1.5 12.2 0.9 4.5 2.7 7.9 5.3 10.2s6.1 3.4 10.6 3.4h166.8c22.9 0 42.5 8.1 58.9 24.4 16.3 16.3 24.4 35.9 24.4 58.9V567.4c0 22.9-8.3 42.5-24.4 58.9-16.3 16.3-35.9 24.4-58.9 24.4H599.6c-1.1 0-3.1 0.2-6 0.5-3 0.3-4.9 0.9-6 1.5-1.1 0.6-2.4 1.6-4.2 2.9-1.7 1.2-3 2.8-3.6 4.7-0.6 1.8-1.1 4.3-1.1 7 0 1.4-0.2 4.8-0.5 10.4s-0.4 10.2-0.2 13.8c0.2 3.6 0.6 7.8 1.5 12.2s2.7 7.9 5.3 10.2 6.1 3.4 10.6 3.4h166.8c41.3 0 76.7-14.7 106.1-44.1 29-29.1 43.7-64.5 43.7-105.8z"  horiz-adv-x="1024" />

    
    <glyph glyph-name="login" unicode="&#58944;" d="M648.062 340.698A58.06 58.06 0 0 1 667.345 384c0 17.185-7.457 32.632-19.283 43.302l-194.18 174.763a58.254 58.254 0 0 1-77.944-86.605l81.342-73.206H104.22a58.254 58.254 0 0 1 0-116.508h353.06l-81.342-73.206a58.254 58.254 0 0 1 77.944-86.605l194.18 174.763z m320.263 43.36V830.616A58.254 58.254 0 0 1 910.07 888.87H618.799a58.254 58.254 0 0 1 0-116.509h233.017V-4.360000000000014H618.8a58.254 58.254 0 0 1 0-116.509h291.272a58.254 58.254 0 0 1 58.254 58.254V384.058z"  horiz-adv-x="1024" />

    
    <glyph glyph-name="denglu2" unicode="&#58918;" d="M512 311.240161a36.54749 36.54749 0 0 1 36.54749 36.54749v511.664859a36.54749 36.54749 0 0 1-73.09498 0v-511.664859A36.54749 36.54749 0 0 1 512 311.240161zM749.558685 758.581438a36.54749 36.54749 0 1 1-36.54749-62.861683 402.02239 402.02239 0 1 0-402.02239 0 36.54749 36.54749 0 0 1-36.54749 62.861683 475.11737 475.11737 0 1 1 475.11737 0z"  horiz-adv-x="1024" />

    
    <glyph glyph-name="denglu3" unicode="&#58970;" d="M216.984304 631.095089c0-144.461772 117.060051-261.521823 261.482937-261.521823s261.508861 117.073013 261.50886 261.521823c0 144.396962-117.085975 261.508861-261.50886 261.50886S216.984304 775.492051 216.984304 631.095089z m0 0M841.416911 367.953013c-136.023494 0-246.278481-110.254987-246.278481-246.278481s110.254987-246.278481 246.278481-246.278481 246.278481 110.254987 246.278481 246.278481-110.254987 246.278481-246.278481 246.278481z m125.109469-261.068152l-83.566177-93.287696a22.411342 22.411342 0 0 0-16.837671-7.569823 22.59281 22.59281 0 0 0-16.811747 37.667645l49.437164 55.218228H727.765873a22.579848 22.579848 0 0 0 0 45.18562h172.356051l-50.655595 57.642127a22.605772 22.605772 0 1 0 33.947544 29.877468l83.216203-94.739443c7.569823-8.606785 7.517975-21.465114-0.103696-29.994126zM597.238278 334.601722a316.558582 316.558582 0 0 0-118.771037-22.981671c-84.642025 0-161.558684 33.260557-218.824912 87.117772C106.223797 319.319494 1.114734 159.134785 1.114734-25.262987a41.297013 41.297013 0 0 1 41.322937-41.322937H577.717468a322.456304 322.456304 0 0 0-60.35119 188.247494 322.75443 322.75443 0 0 0 79.872 212.940152z"  horiz-adv-x="1088" />

    
    <glyph glyph-name="denglu4" unicode="&#59006;" d="M964.334933 896C1035.195733 896 1092.266667 831.010133 1092.266667 752.4352v-728.337067C1092.266667-59.733333 1035.0592-128 964.334933-128H362.769067c-70.8608 0-128 68.4032-128 152.098133v77.824c0 20.548267 17.066667 37.6832 37.546666 37.6832 20.48 0 37.614933-17.134933 37.614934-37.6832v-77.824c0-35.908267 23.893333-64.170667 52.906666-64.170666h601.634134c29.013333 0 52.906667 29.149867 52.906666 64.170666V744.584533c0 35.976533-23.893333 64.170667-52.906666 64.170667H362.769067c-29.0816 0-52.974933-29.0816-52.974934-64.170667V665.941333c0-20.48-17.066667-37.614933-37.546666-37.614933-20.48 0-37.546667 17.066667-37.546667 37.546667V743.765333c0 83.831467 57.207467 151.278933 127.931733 151.278934h601.565867c0.136533 0.068267 0.136533 0.955733 0.136533 0.955733zM550.434133 128.341333a34.952533 34.952533 0 0 0-26.4192 11.946667 42.052267 42.052267 0 0 0 0 56.456533L669.013333 352.324267v0.8192H36.727467C17.066667 352.324267 0 370.210133 0 392.465067c0 22.254933 17.066667 40.277333 37.546667 40.277333h632.354133v0.8192L524.834133 589.073067a42.052267 42.052267 0 0 0 0 56.456533c6.826667 7.714133 17.066667 11.946667 26.487467 11.946667 10.24 0 19.6608-4.232533 26.487467-11.946667L785.066667 423.253333a37.000533 37.000533 0 0 0 10.24-29.9008 41.3696 41.3696 0 0 0-10.24-29.969066l-207.325867-222.208a34.816 34.816 0 0 0-27.306667-12.834134z"  horiz-adv-x="1092" />

    
    <glyph glyph-name="cuowu" unicode="&#58898;" d="M602.606 308.278l267.396 267.384c28.351 28.351 28.351 74.309 0.008 102.654-28.35 28.345-74.32 28.35-102.65 0.012L499.965 410.947 232.654 678.316c-28.354 28.345-74.301 28.35-102.65 0.012-28.357-28.343-28.357-74.304-0.015-102.655l267.32-267.384L130.004 40.99c-28.357-28.351-28.357-74.309-0.015-102.648 14.177-14.182 32.749-21.269 51.332-21.269 18.573 0 37.157 7.087 51.321 21.251l267.311 267.301 267.228-267.283c14.179-14.182 32.749-21.269 51.333-21.269 18.574 0 37.143 7.087 51.325 21.251 28.351 28.344 28.351 74.306 0.009 102.66L602.606 308.278z"  horiz-adv-x="1000" />

    
    <glyph glyph-name="youjiantou" unicode="&#58900;" d="M500 800c-276.1563 0-500-223.8438-500-500s223.8438-500 500-500 500 223.8438 500 500-223.8438 500-500 500zM500-106.25c-224.375 0-406.25 181.875-406.25 406.25s181.875 406.25 406.25 406.25 406.25-181.875 406.25-406.25-181.875-406.25-406.25-406.25zM794.1875 344.1875l-250 250c-24.4063 24.4063-63.9688 24.4063-88.375 0s-24.4063-63.9688 0-88.375l143.3125-143.3125h-349.125c-34.5313 0-62.5-27.9688-62.5-62.5s27.9688-62.5 62.5-62.5h349.125l-143.3125-143.3125c-24.4063-24.4063-24.4063-63.9688 0-88.4063 12.2188-12.1875 28.1875-18.3125 44.1875-18.3125s32 6.0938 44.1875 18.3125l250 250c24.4063 24.4063 24.4063 63.9688 0 88.375z"  horiz-adv-x="1000" />

    
    <glyph glyph-name="querenmima" unicode="&#58971;" d="M292.333833 451.550225 251.586207 410.802599l207.064468-207.0005 501.957021 501.957021-40.683658 40.683658-461.209395-461.209395L292.333833 451.550225zM512.255872-69.341329c-249.987006 0-453.341329 203.354323-453.341329 453.341329s203.354323 453.341329 453.341329 453.341329c39.276362 0 74.842579-4.221889 110.728636-13.241379l47.464268 47.4003C612.685657 887.94003 560.67966 896 512.255872 896 229.901049 896 0.255872 666.290855 0.255872 384c0-282.354823 229.645177-512 512-512 274.230885 0 498.758621 216.595702 511.488256 487.756122l-58.786607 0C952.291854 120.963518 754.054973-69.341329 512.255872-69.341329z"  horiz-adv-x="1024" />

    
    <glyph glyph-name="jiahao" unicode="&#58901;" d="M512 784c52.4 0 103.2-10.3 151-30.5 46.2-19.5 87.7-47.5 123.3-83.2C822 634.7 850 593.2 869.5 547c20.2-47.8 30.5-98.6 30.5-151s-10.3-103.2-30.5-151c-19.5-46.2-47.5-87.7-83.2-123.3C750.7 86 709.2 58 663 38.5c-47.8-20.2-98.6-30.5-151-30.5s-103.2 10.3-151 30.5c-46.2 19.5-87.7 47.5-123.3 83.2C202 157.3 174 198.8 154.5 245c-20.2 47.8-30.5 98.6-30.5 151s10.3 103.2 30.5 151c19.5 46.2 47.5 87.7 83.2 123.3C273.3 706 314.8 734 361 753.5c47.8 20.2 98.6 30.5 151 30.5m0 60C264.6 844 64 643.4 64 396s200.6-448 448-448 448 200.6 448 448S759.4 844 512 844zM727 426H542V611c0 16.6-13.4 30-30 30s-30-13.4-30-30v-185H297c-16.6 0-30-13.4-30-30s13.4-30 30-30h185v-185c0-16.6 13.4-30 30-30s30 13.4 30 30V366h185c16.6 0 30 13.4 30 30s-13.4 30-30 30z"  horiz-adv-x="1024" />

    
    <glyph glyph-name="jingyin" unicode="&#59134;" d="M298.164706 697.223529c60.235294 57.223529 138.541176 72.282353 183.717647 75.294118v30.117647c0 18.070588 12.047059 30.117647 30.117647 30.117647s30.117647-12.047059 30.117647-30.117647v-30.117647c222.870588-9.035294 262.023529-180.705882 262.023529-301.176471 0-126.494118 30.117647-262.023529 99.388236-346.352941 69.270588-84.329412 0-102.4-39.152941-102.4h-96.376471l-42.164706 57.22353h72.282353c72.282353 0 63.247059-3.011765 18.070588 66.258823s-78.305882 207.811765-78.305882 316.235294c0 108.423529-24.094118 256-225.882353 249.976471-3.011765 0-111.435294 9.035294-177.694118-69.270588l-36.141176 54.211764z m-66.258824-114.447058c-9.035294-30.117647-12.047059-66.258824-12.047058-105.411765 0-138.541176-36.141176-268.047059-93.364706-343.341177-57.223529-72.282353-39.152941-108.423529 18.070588-108.423529h478.870588l-42.164706 60.235294h-376.470588c-60.235294 0-18.070588 24.094118 6.023529 72.282353 27.105882 48.188235 72.282353 189.741176 72.282353 310.211765 0 15.058824 0 30.117647 3.011765 45.17647l-54.211765 69.270589z m280.094118-680.658824c90.352941 0 90.352941 90.352941 90.352941 90.352941h-180.705882s0-90.352941 90.352941-90.352941z m-334.305882 810.164706c-9.035294 12.047059-6.023529 33.129412 6.023529 42.164706 15.058824 9.035294 33.129412 6.023529 42.164706-6.02353l548.141176-783.058823c9.035294-12.047059 6.023529-33.129412-6.023529-42.164706-15.058824-9.035294-33.129412-6.023529-42.164706 6.023529l-548.141176 783.058824z"  horiz-adv-x="1024" />

    
    <glyph glyph-name="jianhao" unicode="&#58934;" d="M1001.468587 381.416107c0-269.390507-219.204267-489.741653-491.677014-488.94976-197.946027 0.750933-373.957973 119.620267-449.19808 298.277546-24.69888 57.893547-37.819733 122.740053-37.819733 190.672214 0 269.35296 218.412373 488.557227 490.888533 487.765333 270.5408-0.750933 487.806293-219.204267 487.806294-487.765333zM747.926187 435.438933H275.176107c-14.660267 0-28.5696-6.16448-38.608214-15.848106-9.24672-10.038613-15.4112-23.514453-15.4112-38.17472 0-15.45216 6.16448-28.5696 15.4112-39.400107 10.038613-9.24672 23.947947-15.4112 38.608214-15.4112H747.926187c15.056213 0 28.532053 6.16448 38.212266 15.4112 9.997653 10.827093 16.203093 23.947947 16.203094 39.400107 0 14.660267-6.20544 28.136107-16.203094 38.17472a53.876053 53.876053 0 0 1-38.212266 15.848106z"  horiz-adv-x="1024" />

    
    <glyph glyph-name="tishi" unicode="&#58926;" d="M512 896C229.2224 896 0 666.7776 0 384s229.2224-512 512-512 512 229.2224 512 512S794.7776 896 512 896z m0-796.4672a56.8832 56.8832 0 1 0-0.0512 113.8176A56.8832 56.8832 0 0 0 512 99.5328z m54.2208 227.7888h0.1024c-2.048-29.184-24.6784-52.736-53.8112-55.9104 2.048-0.2048 3.8912-1.1264 5.9904-1.1264h-11.8272c2.048 0 3.84 0.9728 5.8368 1.1264a59.0848 59.0848 0 0 0-53.1456 55.9104l-13.056 284.16a54.3232 54.3232 0 0 0 54.6304 57.0368h26.2656a52.992 52.992 0 0 0 54.1696-57.0368l-15.1552-284.16z"  horiz-adv-x="1024" />

    
    <glyph glyph-name="youxiang" unicode="&#58951;" d="M630.476298 626.408425v-32.158995A237.688572 237.688572 0 0 1 511.984 625.512453c-133.179838 0-241.528452-108.348614-241.528452-241.528453s108.348614-241.528452 241.528452-241.528452a237.592575 237.592575 0 0 1 159.867005 61.022093c39.486766-53.630324 102.908784-61.022093 155.355145-61.022093C1003.584638 142.455548 1023.968001 280.30724 1023.968001 383.984c0 291.894878-220.121121 511.984-511.984001 511.984001-282.295178 0-511.984-229.688822-511.984-511.984001s229.688822-511.984 511.984-511.984c137.659698 0 266.23168 53.278335 362.036687 150.043311l11.743633 11.807631-55.870254 55.870254-11.83963-11.83963c-81.725446-81.725446-190.746039-126.71604-306.966408-126.71604-239.160526 0-433.714446 194.55392-433.714446 433.682448 0 239.160526 194.585919 433.714446 433.714446 433.714446 251.320146 0 433.714446-182.3943 433.714447-433.714446 0-115.964376-34.334927-163.258898-118.460298-163.258899-112.988469 0-118.492297 59.006156-118.492297 163.258899v241.528452h-77.373582z m-120.284242-79.165526c44.510609 0 87.35727-18.719415 118.492298-51.550389V383.984c0-38.046811 2.911909-72.221743 8.671729-101.628824-31.167026-39.294772-78.141558-62.526046-127.132028-62.526046-90.013187 0-163.258898 73.661698-163.258898 164.15487a163.418893 163.418893 0 0 0 163.226899 163.258899z"  horiz-adv-x="1024" />

    
    <glyph glyph-name="iconjia-copy" unicode="&#58902;" d="M902.947 324.97299999999996h-332.293v-332.346c0-32.387-26.267-58.628-58.655-58.628-32.387 0-58.654 26.241-58.654 58.628v332.346h-332.295c-32.414 0-58.654 26.241-58.654 58.628 0 32.375 26.243 58.628 58.654 58.628h332.293v332.346c0 32.375 26.267 58.628 58.654 58.628 32.388 0 58.655-26.254 58.655-58.628v-332.347h332.293c32.414 0 58.655-26.252 58.655-58.626-0.001-32.387-26.241-58.626-58.655-58.626z"  horiz-adv-x="1024" />

    
    <glyph glyph-name="querenmima1" unicode="&#58903;" d="M849.985496-128H174.027027c-58.269907 0-105.920239 44.519561-105.920238 99.821497V395.77796c0 55.301936 47.036701 99.771405 105.920238 99.771405h26.110629v98.932358c0 171.47858 139.782656 301.505754 311.824775 301.505754s311.824775-130.027174 311.824774-301.505754v-99.308051h26.160721c58.319999 0 105.920239-44.619746 105.920239-99.921682v-423.943939c0-54.78849-47.587717-99.308051-105.920239-99.308051z m-115.212367 725.512309c0 116.289352-99.921682 210.963862-222.773129 210.963862s-222.773129-94.724602-222.773129-210.963862v-101.925375h445.546258z m0 0M479.139429 3.88059L275.539141 186.07893l54.024581 44.256576 108.287102-80.573518s149.450476 156.162849 293.753965 229.07224l20.638041-23.39312c-0.112708-0.112708-180.432584-151.103523-273.103401-351.510425z"  horiz-adv-x="1024" />

    
    <glyph glyph-name="mima" unicode="&#59027;" d="M822.541 485.897H356.73V656.035c0 56.05 69.176 119.065 155.27 119.065 86.034 0 155.27-62.395 155.27-119.065v-51.011h0.622c3.92-28.616 29.114-50.948 59.534-50.948s55.614 22.332 59.533 50.948h0.622v51.01c0 131.197-123.545 237.572-276.266 237.572-152.036 0-275.58-106.375-275.58-237.571v-170.138h-34.275c-56.92 0-103.514-45.847-103.514-101.897v-407.71c0-56.05 46.593-101.896 103.514-101.896h621.083c56.92 0 103.514 45.847 103.514 101.895V384c-0.001 56.05-46.594 101.897-103.515 101.897z m-258.785-376.42v-46.531c0-29.3-23.328-52.877-51.757-52.877-28.49 0-51.756 23.577-51.756 52.877v46.532c-40.746 18.475-69.237 59.221-69.237 105.69 0 65.007 54.37 117.262 120.993 117.262s120.933-52.877 120.933-117.262c0-46.469-28.429-86.593-69.176-105.69z"  horiz-adv-x="1024" />

    
    <glyph glyph-name="jiahao-copy" unicode="&#58905;" d="M512-66c-248.512 0-450 201.487-450 450s201.487 450 450 450c248.512 0 450-201.487 450-450 0-248.512-201.487-450-450-450zM737 440.25h-168.75v168.75c0 31.05-25.2 56.25-56.25 56.25s-56.25-25.2-56.25-56.25v-168.75h-168.75c-31.05 0-56.25-25.2-56.25-56.25s25.2-56.25 56.25-56.25h168.75v-168.75c0-31.05 25.2-56.25 56.25-56.25s56.25 25.2 56.25 56.25v168.75h168.75c31.05 0 56.25 25.2 56.25 56.25s-25.2 56.25-56.25 56.25z"  horiz-adv-x="1024" />

    
    <glyph glyph-name="tishi1" unicode="&#58906;" d="M512.198 665.819c-72.675 0-141.018-28.029-192.411-78.877-51.412-50.887-79.712-118.57-79.712-190.525s28.301-139.599 79.712-190.485c51.392-50.849 119.734-78.877 192.411-78.877s141.018 28.029 192.411 78.877c51.412 50.887 79.712 118.529 79.712 190.485s-28.301 139.639-79.712 190.525c-51.392 50.849-119.734 78.876-192.411 78.876z m0-481.928c-118.391 0-214.723 95.319-214.723 212.527s96.332 212.567 214.723 212.567c118.394 0 214.725-95.359 214.725-212.567s-96.334-212.527-214.725-212.527z m3.208 551.514c15.841 0 28.691 12.711 28.691 28.417V832.554c0 15.706-12.849 28.417-28.689 28.417-15.861 0-28.708-12.711-28.708-28.417v-68.732c0-15.706 12.849-28.417 28.708-28.417z m-241.179-96.292c7.348 0 14.694 2.799 20.292 8.358 11.232 11.079 11.232 29.079 0 40.158l-49.098 48.63c-11.215 11.079-29.39 11.079-40.588 0a28.217 28.217 0 0 1 0-40.196l49.098-48.595a28.763 28.763 0 0 1 20.294-8.356z m-101.756-180.03h-69.45c-15.861 0-28.708-12.711-28.708-28.419 0-15.705 12.847-28.419 28.711-28.419h69.45c15.841 0 28.711 12.711 28.711 28.419s-12.868 28.419-28.711 28.419z m748.903-6.335h-69.45c-15.841 0-28.711-12.711-28.711-28.419s12.868-28.419 28.711-28.419h69.45c15.861 0 28.711 12.711 28.711 28.419s-12.847 28.419-28.711 28.419zM754.678 634.642a28.84 28.84 0 0 1 20.292 8.322l49.119 48.63c11.213 11.079 11.213 29.079 0 40.196-11.215 11.079-29.371 11.079-40.606 0l-49.098-48.63c-11.194-11.079-11.194-29.079 0-40.196a28.842 28.842 0 0 1 20.291-8.319zM618.131 70.415H406.264c-15.861 0-28.708-12.751-28.708-28.419 0-15.706 12.847-28.417 28.708-28.417h211.868c15.861 0 28.708 12.711 28.708 28.417-0.001 15.667-12.847 28.419-28.708 28.419z m-38.35-107.995H444.614c-15.861 0-28.708-12.711-28.708-28.417 0-15.667 12.849-28.417 28.708-28.417h135.167c15.86 0 28.708 12.751 28.708 28.417 0 15.706-12.849 28.417-28.708 28.417zM512.198 665.819c-72.675 0-141.018-28.029-192.411-78.877-51.412-50.887-79.712-118.57-79.712-190.525s28.301-139.599 79.712-190.485c51.392-50.849 119.734-78.877 192.411-78.877s141.018 28.029 192.411 78.877c51.412 50.887 79.712 118.529 79.712 190.485s-28.301 139.639-79.712 190.525c-51.392 50.849-119.734 78.876-192.411 78.876z m0-481.928c-118.391 0-214.723 95.319-214.723 212.527s96.332 212.567 214.723 212.567c118.394 0 214.725-95.359 214.725-212.567s-96.334-212.527-214.725-212.527z m3.208 551.514c15.841 0 28.691 12.711 28.691 28.417V832.554c0 15.706-12.849 28.417-28.689 28.417-15.861 0-28.708-12.711-28.708-28.417v-68.732c0-15.706 12.849-28.417 28.708-28.417z m-241.179-96.292c7.348 0 14.694 2.799 20.292 8.358 11.232 11.079 11.232 29.079 0 40.158l-49.098 48.63c-11.215 11.079-29.39 11.079-40.588 0a28.217 28.217 0 0 1 0-40.196l49.098-48.595a28.763 28.763 0 0 1 20.294-8.356z m-101.756-180.03h-69.45c-15.861 0-28.708-12.711-28.708-28.419 0-15.705 12.847-28.419 28.711-28.419h69.45c15.841 0 28.711 12.711 28.711 28.419s-12.868 28.419-28.711 28.419z m748.903-6.335h-69.45c-15.841 0-28.711-12.711-28.711-28.419s12.868-28.419 28.711-28.419h69.45c15.861 0 28.711 12.711 28.711 28.419s-12.847 28.419-28.711 28.419zM754.678 634.642a28.84 28.84 0 0 1 20.292 8.322l49.119 48.63c11.213 11.079 11.213 29.079 0 40.196-11.215 11.079-29.371 11.079-40.606 0l-49.098-48.63c-11.194-11.079-11.194-29.079 0-40.196a28.842 28.842 0 0 1 20.291-8.319zM618.131 70.415H406.264c-15.861 0-28.708-12.751-28.708-28.419 0-15.706 12.847-28.417 28.708-28.417h211.868c15.861 0 28.708 12.711 28.708 28.417-0.001 15.667-12.847 28.419-28.708 28.419z m-38.35-107.995H444.614c-15.861 0-28.708-12.711-28.708-28.417 0-15.667 12.849-28.417 28.708-28.417h135.167c15.86 0 28.708 12.751 28.708 28.417 0 15.706-12.849 28.417-28.708 28.417z"  horiz-adv-x="1024" />

    
    <glyph glyph-name="jianhao3" unicode="&#58907;" d="M512 802.909091c111.709091 0 216.436364-44.218182 295.563636-123.345455 162.909091-162.909091 162.909091-428.218182 0-593.454545C728.436364 9.309090999999967 623.709091-34.90909099999999 512-34.90909099999999s-216.436364 44.218182-295.563636 123.345455c-162.909091 162.909091-162.909091 428.218182 0 593.454545C295.563636 758.690909 400.290909 802.909091 512 802.909091m0 93.090909C381.672727 896 249.018182 847.1272730000001 148.945455 747.054545-48.872727 546.909091-48.872727 221.090909 148.945455 20.945455000000038c100.072727-100.072727 232.727273-148.945455 363.054545-148.945455s262.981818 48.872727 363.054545 148.945455c200.145455 200.145455 200.145455 523.636364 0 723.781818C774.981818 847.1272730000001 642.327273 896 512 896zM733.090909 337.45454500000005h-442.181818c-25.6 0-46.545455 20.945455-46.545455 46.545455s20.945455 46.545455 46.545455 46.545455h442.181818c25.6 0 46.545455-20.945455 46.545455-46.545455s-20.945455-46.545455-46.545455-46.545455z"  horiz-adv-x="1025" />

    
    <glyph glyph-name="querenmima2" unicode="&#59322;" d="M854.016 546.304h-89.6c0 146.432-110.08 258.56-249.856 258.56-140.288 0-249.856-112.128-249.856-258.56h-89.6c0 175.616 152.064 349.696 339.456 349.696s339.456-174.08 339.456-349.696zM873.472 487.424h-716.8c-49.664-0.512-90.112-41.472-89.6-91.136v-433.152c-0.512-49.664 39.424-90.624 89.6-91.136h716.8c49.664 0.512 90.112 41.472 89.6 91.136v433.152c0 50.176-39.936 90.624-89.6 91.136z m-141.312-218.112l-229.888-235.008c-6.656-9.728-16.896-15.872-26.624-15.872-10.24 0-21.504 5.632-28.672 12.8l-127.488 128c-8.704 8.704-8.704 23.04 0 31.744l31.744 31.744c8.704 8.704 22.528 8.704 31.232 0l82.944-83.456 192 187.392c7.168 10.24 20.992 12.8 30.72 6.144l37.888-32.256c10.24-7.168 12.8-20.992 6.144-31.232z"  horiz-adv-x="1024" />

    
    <glyph glyph-name="jiahao1" unicode="&#58931;" d="M512 896C226.743 896 0 669.257 0 384s226.743-512 512-512 512 226.743 512 512S797.257 896 512 896z m0-950.857C270.629-54.857 73.143 142.629 73.143 384S270.629 822.857 512 822.857 950.857 625.371 950.857 384 753.371-54.857 512-54.857zM731.429 420.571H548.57V603.43C548.571 625.37 533.943 640 512 640s-36.571-14.629-36.571-36.571V420.57H292.57C270.63 420.571 256 405.943 256 384s14.629-36.571 36.571-36.571H475.43V164.57C475.429 142.63 490.057 128 512 128s36.571 14.629 36.571 36.571V347.43H731.43C753.37 347.429 768 362.057 768 384s-14.629 36.571-36.571 36.571z"  horiz-adv-x="1024" />

    
    <glyph glyph-name="right-arrow" unicode="&#58908;" d="M393.312 752.688l-312.5-312.5c-24.406-24.406-24.406-63.969 0-88.376l312.5-312.5c24.406-24.406 63.969-24.406 88.376 0 24.406 24.406 24.406 63.969 0 88.376l-205.813 205.813 599.125 0c34.531 0 62.5 27.969 62.5 62.5s-27.969 62.5-62.5 62.5l-599.125 0 205.813 205.813c12.188 12.219 18.313 28.188 18.313 44.188s-6.095 32-18.313 44.188c-24.406 24.406-63.969 24.406-88.376 0z"  horiz-adv-x="1000" />

    
    <glyph glyph-name="iconfontjiantou-copy" unicode="&#58932;" d="M621.24800001 18.751999999999953l320 320c24.992 24.992 24.992 65.504 0 90.496l-320 320c-24.992 24.992-65.504 24.992-90.496 0s-24.992-65.504 0-90.496l210.75199999-210.75199999-613.504-1e-8c-35.36 0-64-28.64-64-64s28.64-64 64-64l613.504-1e-8-210.75199999-210.75199999c-12.48-12.48-18.752-28.864-18.75200001-45.248s6.24-32.768 18.75200001-45.248c24.992-24.992 65.504-24.992 90.496 0z"  horiz-adv-x="1024" />

    
    <glyph glyph-name="tongguo" unicode="&#59049;" d="M998.4 737.4c-32.1 31-83.2 30.1-114.2-1.9l-517.6-535L136.1 417c-32.5 30.6-83.7 29-114.1-3.5-30.6-32.5-29-83.7 3.5-114.1l288.5-271c32.2-30.2 82.6-29 113.3 2.7l573 592.3c31 31.9 30.1 83-1.9 114z m0 0"  horiz-adv-x="1024" />

    
    <glyph glyph-name="jiantou-copy" unicode="&#58909;" d="M640.8453125 388.8684375l-375.770625-375.703125a51.36 51.36 0 1 1 72.75375-72.6853125l412.1146875 411.976875a51.1546875 51.1546875 0 0 1 0 72.8915625L337.8284375 837.2578125a51.36 51.36 0 1 1-72.6853125-72.68625l375.70312501-375.7715625z"  horiz-adv-x="1024" />

    
    <glyph glyph-name="tishi2" unicode="&#58910;" d="M512 75.781095c-63.681592 0-81.512438 81.512438-30.567164 112.079602 17.830846 10.189055 40.756219 10.189055 58.587064 0 53.492537-30.567164 33.114428-112.079602-28.0199-112.079602zM219.064677-33.751244c-73.870647 40.756219-17.830846 127.363184 45.850746 78.965174 71.323383-50.945274 157.930348-78.965174 247.084577-78.965174 231.800995 0 417.751244 185.950249 417.751244 417.751244S743.800995 804.298507 512 804.298507c-112.079602 0-219.064677-43.303483-298.029851-122.268656s-122.268657-185.950249-122.268656-298.029851c0-63.681592 15.283582-122.268657 40.756218-178.308458 61.134328-89.154229-33.114428-137.552239-68.776119-66.228855-43.303483 73.870647-63.681592 157.930348-63.681592 244.537313C0 666.746269 229.253731 896 512 896s512-229.253731 512-512-229.253731-512-512-512c-104.437811 0-206.328358 33.114428-292.935323 94.248756z m239.442786 336.238806l-2.547264 336.238806c0 30.567164 25.472637 53.492537 56.039801 53.492537s53.492537-22.925373 53.492537-53.492537v-336.238806c0-68.776119-106.985075-73.870647-106.985074 0z"  horiz-adv-x="1024" />

    
    <glyph glyph-name="querenmima3" unicode="&#58964;" d="M645.8112 634.0352v-71.424H359.552v71.424c0 78.848 64.1536 142.8992 143.1296 142.8992 78.976 0 143.1296-64.0512 143.1296-142.8992z m-405.504 0v-71.424H143.1552A117.5808 117.5808 0 0 1 25.6 445.184v-455.8336C25.6-75.392 78.336-128 143.1808-128h719.0016a117.5808 117.5808 0 0 1 117.6064 117.376V445.2096c0 64.768-52.736 117.4016-117.6064 117.4016h-97.1008v71.424C765.0816 778.8288 647.7312 896 502.6816 896S240.2816 778.8288 240.2816 634.0352z m232.6016-549.5296c-9.0368-9.0368-24.832-10.5472-35.3792-2.2528l-112.9984 89.6c-21.0944 16.5888-23.3472 45.2096-4.5056 64.7936 18.0736 18.8416 49.7152 21.8368 70.784 5.2736l52.736-41.4208 180.7616 170.24c18.8416 18.0736 48.9728 17.3056 67.0464 0 0 0 0 0.7424-0.768 0.7424l1.536-1.536s-0.768 0-0.768 0.768a48.2304 48.2304 0 0 0-1.5104-67.0208L472.9088 84.48z"  horiz-adv-x="1024" />

    
    <glyph glyph-name="jingyin-" unicode="&#58998;" d="M912.384 63.0784l-39.3728 39.3216a97.8944 97.8944 0 0 1 10.24 126.7712l-58.6752 81.2032v143.872a311.296 311.296 0 0 1-223.1808 298.1376v16.1792a89.6512 89.6512 0 0 1-179.2 0v-17.5104A310.784 310.784 0 0 1 297.984 677.4784L229.1712 746.24a31.3856 31.3856 0 1 1-44.3904-44.3904l72.5504-72.5504a310.784 310.784 0 0 1-54.3232-175.2064v-143.36l-60.8256-79.5136A97.8944 97.8944 0 0 1 220.16 73.8816h172.4416a125.4912 125.4912 0 1 1 238.7968 0H803.84c2.8672 0 5.6832 0 8.4992 0.4096l55.6544-55.6032a31.3856 31.3856 0 0 1 44.3904 44.3904zM485.888 768.5632a26.112 26.112 0 0 0 52.224 0v-4.5568c-7.9872 0.6144-16.0256 1.024-24.1664 1.024-9.472 0-18.7904-0.512-28.0576-1.3312zM514.1504 701.44a247.2448 247.2448 0 0 0 247.2448-247.2448v-164.4032l70.7072-97.8944a34.7136 34.7136 0 0 0-3.9936-44.5952L343.04 632.5248A246.2208 246.2208 0 0 0 514.1504 701.44zM512-26.6752a61.9008 61.9008 0 0 0-48.3328 100.5568h96.6656a61.9008 61.9008 0 0 0-48.3328-100.5568z m-291.84 164.096a34.3552 34.3552 0 0 0-34.3552 34.3552 34.816 34.816 0 0 0 7.0656 20.8384l74.0352 96.7168V454.2464a246.3232 246.3232 0 0 0 36.352 129.1264l445.952-445.952z"  horiz-adv-x="1024" />

    
    <glyph glyph-name="tishi3" unicode="&#58912;" d="M955.072 91.456h-110.72V420.48c0 148.16-99.712 272.512-234.496 314.56 7.36 14.592 12.928 32.896 12.928 51.2C622.72 846.656 572.8 896 512 896c-60.928 0-110.72-49.344-110.72-109.696 0-18.304 5.504-36.608 12.864-51.2-134.784-42.048-234.432-166.4-234.432-314.56v-329.088H68.928a36.864 36.864 0 0 1-36.928-36.608c0-20.096 16.64-36.544 36.928-36.544h262.144C347.712-65.92 423.36-128 512-128s164.288 62.144 180.928 146.304h262.144a36.864 36.864 0 0 1 36.928 36.544 36.864 36.864 0 0 1-36.928 36.608z m-480 694.848c0 20.096 16.64 36.544 36.928 36.544 20.288 0 36.928-16.448 36.928-36.544 0-20.16-16.64-36.608-36.928-36.608a36.864 36.864 0 0 0-36.928 36.608zM512-54.848c-48 0-88.64 31.104-105.216 73.152h208.64A109.888 109.888 0 0 0 512-54.848z m184.64 146.304H253.568V420.48c0 140.8 116.288 256 258.432 256s258.432-115.2 258.432-256v-329.088h-73.792z"  horiz-adv-x="1024" />

    
    <glyph glyph-name="jian" unicode="&#58913;" d="M262.4 428.8h512v-64h-512zM883.2-64H147.2c-51.2 0-96 44.8-96 96V761.6c0 51.2 44.8 96 96 96h736c51.2 0 96-44.8 96-96v-736c0-51.2-44.8-89.6-96-89.6zM147.2 793.6c-19.2 0-32-12.8-32-32v-736c0-19.2 12.8-32 32-32h736c19.2 0 32 12.8 32 32V761.6c0 19.2-12.8 32-32 32H147.2z"  horiz-adv-x="1024" />

    
    <glyph glyph-name="tishi4" unicode="&#59151;" d="M511.634286 896C229.083429 896 0 667.355429 0 385.389714c0-282.038857 229.083429-510.683429 511.634286-510.683428 282.624 0 511.707429 228.644571 511.707428 510.683428C1023.268571 667.355429 794.258286 896 511.634286 896z m87.259428-728.868571c-43.154286-66.56-87.04-118.052571-160.768-118.052572-50.322286 8.484571-71.094857 45.641143-60.123428 83.456l95.012571 323.657143c2.413714 7.826286-1.462857 16.310857-8.557714 18.797714-6.948571 2.486857-20.772571-6.802286-32.621714-20.260571l-57.490286-71.094857c-1.609143 11.849143-0.073143 31.597714-0.073143 39.570285 42.934857 66.56 113.883429 119.222857 161.938286 119.442286 45.787429-4.900571 67.291429-42.569143 59.392-83.748571L499.931429 133.851429c-1.243429-7.460571 2.486857-14.848 8.996571-17.261715 6.948571-2.486857 21.650286 6.875429 33.645714 20.333715l57.490286 70.948571c1.316571-11.776-1.170286-32.768-1.170286-40.740571zM582.217143 585.581714c-36.205714 0-65.682286 27.136-65.682286 67.291429s29.476571 67.437714 65.682286 67.291428c36.278857 0 65.682286-27.136 65.682286-67.291428 0-40.009143-29.403429-67.291429-65.682286-67.291429z"  horiz-adv-x="1024" />

    
    <glyph glyph-name="youxiang1" unicode="&#58933;" d="M324.627 15.475c67.623-28.09 139.975-45.69 227.098-45.69 83.955 0 156.14 15.316 216.57 38.81C828.71 32.09 877.37 65.21 914.252 112.18l0.307-0.006c2.138 24.601 22.547 43.968 47.706 43.968 25.977 0 47.001-20.627 47.948-46.375l3.738-0.096c-0.954-2.81-2.278-5.536-3.347-8.326-0.602-13.14-6.407-24.838-15.488-33.158-27.834-49.92-73.146-94.26-130.394-126.247C781.466-104.685 679.943-128 560.16-128c-115.923 0-216.045 19.693-300.352 59.085-84.307 39.392-147.014 102.509-188.115 179.347-41.101 76.838-61.645 160.46-61.645 250.9 0 99.263 23.354 191.73 70.08 277.4 46.72 85.658 110.656 149.96 191.802 192.878C353.075 874.54 445.818 896 550.144 896c88.525 0 167.206-17.312 236.064-51.93 68.845-34.63 115.667-83.814 152.026-147.577 36.358-63.77 48.358-133.447 48.358-209.043 0-90.087-26.515-178.573-73.658-244.282-55.04-77.171-155.008-134.88-263.206-134.88-29.165 0-51.11 5.114-65.862 15.366-14.752 10.247-24.596 25.248-29.51 45.037-41.454-40.269-89.23-60.403-143.322-60.403-29.37 0-76.314 11.533-114.778 51.994-38.464 40.441-58.086 100.05-55.866 167.136 2.893 87.36 34.375 166.028 66.272 215.744 54.144 84.723 134.004 122.17 187.098 122.17 62.522 0 132.55-29.825 162.413-77.857l4.32 15.879c-0.755 3.321-1.242 6.745-1.242 10.297l-0.429 4.301c0 25.574 20.736 46.31 46.31 46.31 25.575 0 46.311-20.73 46.311-46.31l0.045-0.48h0.525l-0.378-1.472 0.237-2.355c0-8.947-2.656-17.223-7.046-24.301l-77.39-302.733c-4.92-24.025-7.378-41.888-7.378-48.953 0-8.839 2.016-15.463 6.06-19.872 4.032-4.423 8.864-6.624 14.49-6.624 16.864 0 76.262 23.942 102.963 44.428 35.834 26.848 57.293 51.501 79.424 96.73 22.131 45.216 28.083 92.013 28.083 140.422 0 86.9-18.636 159.578-81.158 218.055C747.386 769.26 660.09 799.27 548.038 799.27c-95.206 0-170.899-20.294-237.107-59.334-66.22-39.034-116.877-93.978-150.425-164.8-33.55-70.835-52.442-144.576-52.442-221.229 0-74.54 18.317-139.859 55.731-200.973 37.415-61.1 93.203-109.376 160.832-137.459z m252.627 522.803c-18.444 21.37-48.281 29.562-76.384 29.562-30.214 0-53.907-6.74-79.539-30.227-25.651-23.495-44.973-45.389-57.958-88.839-13.005-43.45-30.298-81.964-30.298-115.52 0-44.87 9.037-77.888 27.136-99.09 18.087-21.191 52.058-31.79 78.759-31.79 20.025 0 32.838 7.45 50.412 17.35 13.35 7.054 26.522 18.19 39.52 33.377 18.612 21.542 34.688 52.992 48.212 94.317 13.523 41.33 30.316 77.33 30.316 113.01-0.006 39.918-11.73 56.48-30.176 77.85z"  horiz-adv-x="1024" />

    
    <glyph glyph-name="youxiang2" unicode="&#59005;" d="M511.764 343.688L94.503 690.7c14.144 11.316 31.117 18.86 50.448 18.86h733.155c19.33 0 36.775-7.544 50.448-19.331l-416.79-346.54z m26.403-84.395l421.505 350.311v-470.067c0-44.791-36.304-81.095-81.095-81.095H145.423c-44.791 0-81.095 36.775-81.095 81.095V609.604l421.976-350.311c7.544-6.13 16.502-9.43 25.932-9.43s18.388 3.3 25.931 9.43z"  horiz-adv-x="1024" />

    
    <glyph glyph-name="xingzhuang" unicode="&#58922;" d="M1138.354597-12.318265L631.344308 865.854621a60.361612 60.361612 0 0 1-104.508705 0L18.803392-14.021471a60.361612 60.361612 0 0 1 52.254352-90.542418h1016.064424a60.361612 60.361612 0 0 1 51.232429 92.245624z m-507.555314 91.904982a51.777455 51.777455 0 1 0-103.418654 0v1.635078a51.777455 51.777455 0 1 0 103.418654 0v-1.635078z m0 189.055839a51.777455 51.777455 0 1 0-103.418654 0V543.744349a51.777455 51.777455 0 1 0 103.418654 0v-275.101793z"  horiz-adv-x="1158" />

    
    <glyph glyph-name="left" unicode="&#58914;" d="M348.99379407 378.31054615999994l422.93654668 422.9437849c17.77417782 17.76259666 17.77417782 46.59388232 1e-8 64.35792663-17.76259666 17.77417782-46.59388232 17.77417782-64.35792664 0l-455.12057675-455.12347204c-17.77852076-17.76259666-17.77852076-46.59388232 0-64.35792662l455.1220244-455.12202442c8.88419362-8.88853654 20.53194038-13.33425247 32.17823949-13.33425246s23.29549351 4.44571592 32.17823949 13.33425246c17.77852076 17.76259666 17.77852076 46.59388232 0 64.35792664l-422.93944197 422.94523255z"  horiz-adv-x="1024" />

    
    <glyph glyph-name="mima1" unicode="&#58915;" d="M854.848-96H169.152c-37.888 0-68.608 28.672-68.608 64V448c0 35.328 30.72 64 68.608 64h685.696c37.888 0 68.608-28.672 68.608-64v-480c0-35.328-30.72-64-68.608-64zM512 352c-56.832 0-102.848-42.944-102.848-96 0-35.456 20.8-66.048 51.392-82.688v-91.328c0-27.584 23.04-49.984 51.456-49.984 28.416 0 51.456 22.4 51.456 49.984v91.328c30.592 16.64 51.392 47.232 51.392 82.688 0 53.056-46.08 96-102.848 96zM512 768C398.4 768 306.304 682.048 306.304 576H203.456c0 159.04 138.112 288 308.48 288 170.496 0 308.608-128.96 308.608-288h-102.848c0 106.048-92.096 192-205.696 192z"  horiz-adv-x="1024" />

    
    <glyph glyph-name="zu" unicode="&#59052;" d="M860.032 90.652444A455.594667 455.594667 0 1 1 512.028444-71.111111h408.177778a42.055111 42.055111 0 0 1 29.738667 71.779555zM481.92 598.570667l40.775111 13.639111a42.055111 42.055111 0 1 0 26.666667-79.758222l-40.775111-13.639112a42.055111 42.055111 0 0 0-26.666667 79.758223z m98.432-170.225778l-37.589333-168.291556a42.055111 42.055111 0 0 0 11.136-80.142222l-51.683556-22.755555a42.055111 42.055111 0 0 0-57.969778 47.658666l37.532445 167.992889a42.055111 42.055111 0 0 0-13.198222 80.768l54.570666 22.755556a42.055111 42.055111 0 0 0 57.201778-47.985778z"  horiz-adv-x="1024" />

    
    <glyph glyph-name="tongguo1" unicode="&#59023;" d="M512 384m-512 0a512 512 0 1 1 1024 0 512 512 0 1 1-1024 0ZM328.832 435.498667a42.666667 42.666667 0 1 1-60.330667-60.330667l179.498667-179.498667 328.832 328.832a42.666667 42.666667 0 1 1-60.330667 60.330667L448 316.330667l-119.168 119.168z"  horiz-adv-x="1024" />

    
    <glyph glyph-name="tishi5" unicode="&#58919;" d="M512 896a512 512 0 1 1 0-1024 512 512 0 0 1 0 1024z m311.109818-823.109818A437.713455 437.713455 0 0 0 512-55.947636a437.527273 437.527273 0 0 0-171.287273 34.443636 440.413091 440.413091 0 0 0-139.822545 94.301091A437.713455 437.713455 0 0 0 106.589091 212.712727 436.596364 436.596364 0 0 0 71.959273 384c0 59.392 11.543273 117.015273 34.536727 171.194182a440.413091 440.413091 0 0 0 94.301091 139.915636A437.713455 437.713455 0 0 0 512 823.947636 437.527273 437.527273 0 0 0 822.923636 695.202909c40.401455-40.401455 72.238545-87.505455 94.301091-139.915636a435.665455 435.665455 0 0 0 34.629818-171.287273 437.527273 437.527273 0 0 0-128.837818-311.109818z m-316.322909 159.185454a36.026182 36.026182 0 0 0-35.84 39.656728c4.840727 49.896727 41.425455 90.205091 81.733818 130.513454 64.512 64.418909 65.629091 84.992 66.746182 106.682182a92.625455 92.625455 0 0 1-26.437818 69.073455 112.360727 112.360727 0 0 1-81.175273 34.536727h-0.186182a107.706182 107.706182 0 0 1-107.333818-107.426909 36.026182 36.026182 0 0 0-72.052363 0 178.362182 178.362182 0 0 0 52.410181 126.789818c33.512727 33.792 79.127273 52.689455 126.789819 52.689454a184.785455 184.785455 0 0 0 133.771636-56.971636c32.116364-33.792 48.500364-77.265455 46.08-122.507636-2.513455-46.359273-16.756364-82.850909-87.691636-153.786182-36.026182-36.026182-58.647273-63.022545-60.974546-86.667636a36.026182 36.026182 0 0 0-35.84-32.581819z m-44.590545-105.192727a43.287273 43.287273 0 1 1 86.574545 0 43.287273 43.287273 0 0 1-86.574545 0z"  horiz-adv-x="1024" />

    
    <glyph glyph-name="tishi6" unicode="&#58927;" d="M606.354286 449.828571v-336.457142h-102.4V449.828571h102.4z m-51.2 204.8c36.571429 0 58.514286-29.257143 58.514285-58.514285s-21.942857-65.828571-58.514285-65.828572-58.514286 21.942857-58.514286 58.514286 21.942857 65.828571 58.514286 65.828571zM555.154286-128c-285.257143 0-512 226.742857-512 512s226.742857 512 512 512 512-226.742857 512-512-226.742857-512-512-512z m0 950.857143c-241.371429 0-438.857143-197.485714-438.857143-438.857143s197.485714-438.857143 438.857143-438.857143 438.857143 197.485714 438.857143 438.857143-197.485714 438.857143-438.857143 438.857143z"  horiz-adv-x="1097" />

    
    <glyph glyph-name="youxiang3" unicode="&#59161;" d="M511.6 896c-15.2 0-30.5-0.8-45.6-2.4-2.2 0.1-4.3-0.2-6.4-0.8C215.9 867.8 24 673.5 2.1 429.5-23.2 148 184.5-100.7 466-126c14.2-1.4 29-2 44.1-2 17.8 0 36.6 1 56 2.8 3.5 0.1 6.9 0.6 10.2 1.6 101.8 13.2 197.4 56.7 274.2 124.9h0.8c5.8 5.1 13.4 11.8 20 18.4l1.6 1.6c7.3 7.4 15 15 22.4 23.2v0.8c68.1 77 111.5 172.6 124.7 274.5 0.9 5 1.5 10.1 1.6 15.2 1.6 17.2 2.4 33 2.4 49.6C1022.8 666.9 794 895.4 511.6 896z m207-292.4c12.2 0 23.5-3.5 33.5-9L530.6 410.3c-11.1-9.7-27.7-9.7-39.3 0.4L270.5 594.4c10.1 5.7 21.6 9.2 34.1 9.2h414z m70.1-369.4c0-38.7-31.4-70.1-70.1-70.2h-414c-38.7 0.1-70.1 31.5-70.2 70.2V533.4c0 7.5 1.5 14.6 3.7 21.4L458 371.9c15.2-13.4 34.3-20 53.3-20 18.9 0 37.6 6.5 52.5 19.6l221 183.9c2.3-6.9 3.8-14.2 3.8-21.9v-299.3z"  horiz-adv-x="1024" />

    
    <glyph glyph-name="livesvg03" unicode="&#58884;" d="M273.513036 457.352057c-37.76668 0-68.40014-31.771274-68.40014-70.938341 0-39.167067 30.63346-70.938341 68.40014-70.938341 37.76668 0 68.356378 31.771274 68.356378 70.938341C341.869414 425.624545 311.279716 457.352057 273.513036 457.352057L273.513036 457.352057zM547.026072 457.352057c-37.76668 0-68.40014-31.771274-68.40014-70.938341 0-39.167067 30.63346-70.938341 68.40014-70.938341 37.76668 0 68.356378 31.771274 68.356378 70.938341C615.382449 425.624545 584.792751 457.352057 547.026072 457.352057L547.026072 457.352057zM820.539107 457.352057c-37.76668 0-68.40014-31.771274-68.40014-70.938341 0-39.167067 30.63346-70.938341 68.40014-70.938341 37.76668 0 68.356378 31.771274 68.356378 70.938341C888.939247 425.624545 858.305787 457.352057 820.539107 457.352057L820.539107 457.352057zM957.295625 812 136.756518 812C61.223158 812 0 748.457452 0 670.123318l0-531.971914c0-78.334133 62.623545-150.585337 139.863626-150.585337l208.395052 0c36.322531-38.685684 186.689058-194.347423 186.689058-194.347423 6.695599-6.958172 17.504834-6.958172 24.156671 0 0 0 110.061646 124.809468 181.787704 194.347423l213.296406 0c77.240081 0 139.863626 72.207441 139.863626 150.585337L1094.052143 670.123318C1094.052143 748.457452 1032.828985 812 957.295625 812L957.295625 812zM1025.695765 138.151404c0-39.167067-32.865326-80.259665-71.507248-80.259665l-209.751677 0c-25.425772 0-48.225818-26.125965-48.225818-26.125965l-147.259418-152.729679-147.259418 152.729679c0 0-28.051497 26.125965-52.076882 26.125965L139.863626 57.891739c-38.641922 0-71.463486 41.092598-71.463486 80.259665L68.40014 670.123318c0 39.167067 30.63346 70.938341 68.356378 70.938341l820.539107 0c37.76668 0 68.40014-31.771274 68.40014-70.938341L1025.695765 138.151404 1025.695765 138.151404zM1025.695765 138.151404"  horiz-adv-x="1095" />

    
    <glyph glyph-name="tuichu" unicode="&#59004;" d="M905.776923 346.197022 739.023038 178.604026c-21.742187-21.849634-57.042157-21.849634-78.838579 0-21.742187 21.911032-21.742187 57.379848 0 79.234599l71.553663 71.940472L420.927283 329.779098c-30.815843 0-55.752792 25.105794-55.752792 56.035224 0 30.9325 24.936949 56.032154 55.752792 56.032154l311.373657 0-72.116481 72.451102c-21.742187 21.848611-21.742187 57.375755 0 79.228459 21.796422 21.905916 57.096393 21.905916 78.838579 0L905.776923 425.930995c10.926864-10.979052 16.302291-25.434276 16.243963-39.839357C922.079214 371.639484 916.703787 357.183238 905.776923 346.197022L905.776923 346.197022zM586.702887 706.656631 197.919187 706.656631l0-642.710994 388.783701 0c30.763654 0 55.697533-25.097608 55.697533-56.032154 0-30.92943-24.933879-56.035224-55.697533-56.035224L197.919187-48.121741c-61.524239 0-111.449301 50.151213-111.449301 112.067378L86.469885 706.656631c0 61.915142 49.925063 112.067378 111.449301 112.067378l388.783701 0c30.763654 0 55.697533-25.105794 55.697533-56.033178C642.400421 731.761402 617.465518 706.656631 586.702887 706.656631L586.702887 706.656631zM586.702887 706.656631"  horiz-adv-x="1024" />

    
    <glyph glyph-name="sousuo" unicode="&#59012;" d="M103.355 203.449l324.675 0c-34.137 24.771-64.03 54.772-88.375 88.972l-236.304 0c-22.82 0-41.317-18.126-41.317-40.631l0-7.541c0-22.5 18.495-40.801 41.317-40.801M831.502 192.561c-7.753 20.078-30.923 30.345-51.712 22.759l-9.753-3.555c-20.959-7.312-31.542-29.679-23.745-49.568l70.329-181.652c7.821-20.014 30.9-30.212 51.684-22.736l9.813 3.537c20.979 7.312 31.567 29.744 23.745 49.651l-70.377 181.571zM663.154 55.179l-559.798-0.042c-22.82 0-41.317-18.173-41.317-40.65l0-7.541c0-22.522 18.495-40.845 41.317-40.845l559.798 0c22.799 0 41.271 18.235 41.271 40.738l0 7.63c0.042 22.479-18.451 40.719-41.271 40.719M357.978 464.69c4.994-30.042 14.576-59.939 29.358-88.506 16.135-31.113 37.267-58.141 61.633-80.876 32.937-30.817 71.94-53.828 114.134-67.46 74.426-24.153 158.064-20.078 233.217 17.766 149.426 75.474 208.636 256.275 132.348 403.86-65.164 125.578-207.373 186.305-340.533 155.082-23.274-5.423-46.245-13.351-68.49-24.561-30.646-15.47-57.238-35.484-79.909-58.611-46.332-47.251-75.411-107.874-83.425-171.948-3.515-27.921-2.98-56.426 1.67-84.753M657.922 740.035c127.227 0 230.322-101.786 230.322-227.366 0-125.536-103.118-227.299-230.322-227.299-127.162 0-230.237 101.746-230.237 227.299 0.022 125.554 103.094 227.366 230.237 227.366M106.335 536.673c-24.475 0-44.271-19.629-44.271-43.695l0-8.228c0-24.129 19.822-43.629 44.271-43.629l169.699 0c-4.434 23.207-6.986 47.103-6.986 71.596 0 8.038 0.685 15.964 1.242 23.957l-163.953 0zM103.355 699.707l215.087 0c18.707 33.023 42.213 62.961 69.559 89.038l-284.642 0c-22.82 0-41.317-18.126-41.317-40.631l0-7.587c0-22.522 18.495-40.82 41.317-40.82z"  horiz-adv-x="1024" />

    
    <glyph glyph-name="tupian" unicode="&#59821;" d="M831.248 727.845 192.745 727.845c-40.71 0-73.71-33.005-73.71-73.715l0-540.264c0-40.705 33-73.71 73.71-73.71l638.503 0c40.715 0 73.715 33.005 73.715 73.71L904.963 654.131C904.963 694.84 871.963 727.845 831.248 727.845L831.248 727.845zM192.725 678.725l638.548 0c13.57 0 24.57-11.005 24.57-24.575l0-289.269c-39.58 32.48-108.2 76.26-190.514 76.26-75.9 0-150.725-58.805-223.074-115.68-55.45-43.58-112.785-88.645-153.005-88.645-56.425 0-104.725 41.475-121.095 57.31L168.155 654.151C168.155 667.721 179.155 678.725 192.725 678.725L192.725 678.725zM831.273 89.277 192.725 89.277c-13.57 0-24.57 11.005-24.57 24.57L168.155 230.442c29.45-20.865 72.035-42.765 121.095-42.765 57.225 0 118.5 48.155 183.365 99.145 65.795 51.71 133.815 105.18 192.715 105.18 105.57 0 189.294-92.925 190.125-93.865l0.39 0.34 0-184.625C855.843 100.282 844.843 89.277 831.273 89.277L831.273 89.277zM364.384 383.731c54.335 0 98.375 44.045 98.375 98.375 0 54.335-44.04 98.37-98.375 98.37-54.325 0-98.375-44.035-98.375-98.37C266.009 427.776 310.059 383.731 364.384 383.731L364.384 383.731zM364.749 531.361c27.055 0 48.98-21.93 48.98-48.98 0-27.055-21.925-48.98-48.98-48.98-27.05 0-48.98 21.93-48.98 48.98C315.769 509.431 337.704 531.361 364.749 531.361L364.749 531.361z"  horiz-adv-x="1024" />

    
    <glyph glyph-name="xiaoxi" unicode="&#58986;" d="M511.744128-0.063968c-32.751624 0-64.47976 3.070465-95.696152 8.187906l-224.143928-136.123938v226.702649c-116.677661 81.87906-191.904048 207.768116-191.904048 349.521239 0 247.172414 229.261369 447.776112 511.744128 447.776112s511.744128-200.603698 511.744128-447.776112-228.749625-448.287856-511.744128-448.287856zM511.744128 831.52024c-247.172414 0-447.776112-171.946027-447.776112-383.808096 0-129.983008 75.738131-244.613693 190.88056-314.210895l-2.046977-148.405797 150.452774 90.578711c34.798601-7.164418 70.62069-11.770115 107.978011-11.770115 247.172414 0 447.776112 171.946027 447.776112 383.808096 1.023488 211.862069-199.58021 383.808096-447.264368 383.808096zM735.888056 479.44028h-447.776112c-17.911044 0-32.23988 14.328836-32.23988 32.23988s14.328836 32.23988 32.23988 32.23988h447.776112c17.911044 0 32.23988-14.328836 32.23988-32.23988s-14.84058-32.23988-32.23988-32.23988zM352.07996 351.504248h319.84008c17.911044 0 32.23988-14.328836 32.23988-32.23988s-14.328836-32.23988-32.23988-32.23988h-319.84008c-17.911044 0-32.23988 14.328836-32.23988 32.23988s14.328836 32.23988 32.23988 32.23988z"  horiz-adv-x="1024" />

    
    <glyph glyph-name="yunxiangmugongdanweixintubiao-" unicode="&#58894;" d="M567.963 322.494c100.063 49.325 169.063 151.883 169.063 270.049 0 166.259-136.269 301.472-303.745 301.472s-303.746-135.212-303.746-301.472c0-118.224 68.974-220.895 169.182-270.251-173.226-56.357-298.717-218.313-298.717-408.792 0-19.513 15.951-35.497 35.8-35.497 19.707 0 35.772 15.784 35.772 35.497 0 198.083 162.304 359.15 361.825 359.15 79.664 0 155.253-25.283 218.506-72.916 15.544-11.878 37.968-8.866 49.9 6.858 11.962 15.524 8.902 37.791-6.878 49.672-38.979 29.212-81.686 51.508-126.962 66.23zM433.282 361.948c-128.092 0-232.317 103.502-232.317 230.595 0 127.092 104.225 230.538 232.317 230.538 128.063 0 232.289-103.446 232.289-230.538-0.001-127.092-104.226-230.595-232.289-230.595zM552.2 140.938c0-19.571 15.95-35.668 35.801-35.668h400.196c19.708 0 35.803 15.984 35.803 35.668 0 19.6-15.951 35.668-35.803 35.668h-400.341c-19.706 0-35.656-15.983-35.656-35.668zM988.053 60.909h-400.197c-19.706 0-35.801-15.984-35.801-35.67 0-19.684 15.95-35.639 35.801-35.639h400.196c19.706 0 35.803 15.955 35.803 35.639 0 19.685-16.096 35.67-35.802 35.67zM988.053-54.62h-400.197c-19.706 0-35.801-16.011-35.801-35.754 0-19.482 15.95-35.611 35.801-35.611h400.196c19.706 0 35.803 15.956 35.803 35.611-0.146 19.743-16.096 35.754-35.802 35.754z"  horiz-adv-x="1024" />

    
    <glyph glyph-name="tupian1" unicode="&#58950;" d="M917.661065 789.681083H107.821811a93.428836 93.428836 0 0 1-93.456554-93.424217v-622.956944c0-51.617299 41.842334-93.456553 93.456554-93.456554h809.839254c51.61422 0.007699 93.450394 41.845414 93.458093 93.456554V696.256866c-0.046195 51.589582-41.866971 93.394959-93.458093 93.424217z m15.575579-621.039832L737.729636 429.316235s-11.36409 21.083621-51.255434 21.083621c-45.300836 0-58.888469-20.433805-58.88847-20.433805L456.343675 165.629305s-9.309931-17.677474-32.15668-17.677473c-23.924644 0-35.339549 17.677474-35.339548 17.677473l-90.051946 102.938948s-23.085426 30.564475-53.052439 30.564475c-29.863844 0-54.661582-33.833576-54.661582-33.833576l-98.832169-123.098659V679.537179c0 17.181642 13.947958 31.180415 31.163477 31.180415h778.675777c17.217059 0 31.181955-13.998773 31.181955-31.180415v-510.895928h-0.033876zM465.927699 509.323741c0-60.959567-49.372198-110.331765-110.297888-110.331765S245.298045 448.414989 245.298045 509.323741c0.027717 60.917991 49.415314 110.28865 110.331766 110.296349 60.899513-0.036956 110.259392-49.396836 110.297888-110.296349z"  horiz-adv-x="1024" />

    
    <glyph glyph-name="xiaoxi1" unicode="&#58916;" d="M966.4-125.2c-2.8 0-5.4 0.4-8.2 1l-212.6 54.8C674-106 594-125.2 513.2-125.2 231.8-125.2 2.8 103.8 2.8 385.4S231.8 896 513.4 896 1024 667 1024 385.4c0-105.8-31.8-206.6-92.2-292.8l65.2-173.8c4.2-11.4 1.8-24.2-6.2-33.2-6.4-7-15.2-10.8-24.4-10.8z m-453 956C267.8 830.8 68 631 68 385.4 68 139.8 267.8-60 513.4-60c74.2 0 147.6 18.6 212.4 53.8 0.4 0.2 0.8 0.4 1.4 0.8 7.6 3.8 15.8 4.4 23.4 2.2l163.4-42.2-48.6 129.4c-4.8 10.6-3.8 23.4 3.6 33.2 58.8 77.8 89.8 170.6 89.8 268.2 0 245.6-199.8 445.4-445.4 445.4zM271.2 385.4c0-21.4 11.4-41 29.8-51.8 18.4-10.6 41.2-10.6 59.8 0 18.4 10.6 29.8 30.4 29.8 51.8s-11.4 41-29.8 51.8c-18.4 10.6-41.2 10.6-59.8 0-18.4-10.8-29.8-30.4-29.8-51.8M453.6 385.4c0-21.4 11.4-41 29.8-51.8 18.4-10.6 41.2-10.6 59.8 0 18.4 10.6 29.8 30.4 29.8 51.8s-11.4 41-29.8 51.8c-18.4 10.6-41.2 10.6-59.8 0-18.4-10.8-29.8-30.4-29.8-51.8M636 385.4c0-21.4 11.4-41 29.8-51.8 18.4-10.6 41.2-10.6 59.8 0 18.4 10.6 29.8 30.4 29.8 51.8s-11.4 41-29.8 51.8c-18.4 10.6-41.2 10.6-59.8 0-18.4-10.8-29.8-30.4-29.8-51.8"  horiz-adv-x="1024" />

    
    <glyph glyph-name="sousuo1" unicode="&#58911;" d="M1011.174-115.514c-16.646-16.646-43.635-16.646-60.281 0L696.69 138.688c-73.51-60.026-167.34-96.109-269.638-96.109C191.386 42.58 0.339 233.626 0.339 469.293S191.386 896 427.053 896 853.76 704.954 853.76 469.293c0-46.47-8.02-90.919-21.843-132.749-0.794-5.152-2.515-9.94-4.98-14.304-1.343-3.642-2.393-7.418-3.833-11.014l-2.406 2.412c-7.757-8.115-18.637-13.228-30.746-13.228-23.54 0-42.624 19.084-42.624 42.624l-0.39 3.955c0 11.206 4.416 21.318 11.481 28.928l-3.955 3.949c7.904 28.768 12.467 58.93 12.467 90.214 0 188.147-152.525 340.672-340.672 340.672-188.147 0-340.672-152.525-340.672-340.672 0-188.154 152.525-340.678 340.672-340.678 93.274 0 177.722 37.555 239.245 98.284 0.262 0.282 0.435 0.608 0.614 0.928l61.71-1.056 146.617-146.617 0.275 0.275 136.454-136.454c16.647-16.647 16.647-43.636 0-60.276z"  horiz-adv-x="1024" />

    
    <glyph glyph-name="qingchu" unicode="&#58984;" d="M492.8 793.6C268.8 793.6 83.2 608 83.2 384c0-224 185.6-409.6 409.6-409.6s409.6 185.6 409.6 409.6c0 224-185.6 409.6-409.6 409.6z m0-755.2c-192 0-345.6 153.6-345.6 345.6s153.6 345.6 345.6 345.6c192 0 345.6-153.6 345.6-345.6s-153.6-345.6-345.6-345.6zM614.4 505.6c-12.8 12.8-32 12.8-44.8 0L492.8 428.8 416 505.6c-12.8 12.8-32 12.8-44.8 0s-12.8-32 0-44.8L448 384 371.2 307.2c-12.8-12.8-12.8-32 0-44.8s32-12.8 44.8 0l76.8 76.8 76.8-76.8c12.8-12.8 32-12.8 44.8 0s12.8 32 0 44.8L537.6 384l76.8 76.8c12.8 12.8 12.8 32 0 44.8z"  horiz-adv-x="1024" />

    
    <glyph glyph-name="file" unicode="&#58896;" d="M844.964906-6.980738999999971H177.685353c-53.357232 0-96.92961 42.0937-98.356098 94.374414l-66.77073 435.732989v2.413979c0 53.499471 44.154639 97.023754 98.42773 97.023754h12.797468v55.392588c0 53.499471 44.13929 97.023754 98.392937 97.023754h200.169949c35.95284 0 90.110297-30.509874 119.816876-65.330938h258.314207c41.638329 0 137.806599-31.343869 142.68777-92.180445 38.872333-12.976546 66.927295-49.284473 66.927295-91.928713v-2.413979l-66.772776-435.732989c-1.425466-52.281737-44.99989-94.374414-98.355075-94.374414zM76.005556 527.55144l66.673516-435.092399v-2.41398c0-18.548448 15.703657-33.640168 35.006281-33.640168h667.279553c19.302625 0 35.007305 15.09172 35.007305 33.640168v2.41398l66.673515 435.092399c-1.086751 17.616216-16.361643 31.627325-34.981722 31.627325h-31.692816v52.642964c-1.559519 3.382027-10.277064 12.340049-29.477359 21.196764-19.729344 9.101285-39.759539 13.246699-50.018183 13.246699h-291.91856l-9.281387 15.07637c-15.347546 24.923646-60.446697 50.254567-76.931137 50.254568h-200.168925c-19.302625 0-35.007305-15.090697-35.007305-33.638122v-118.77822h-76.1831c-18.619056-0.001023-33.892925-14.013155-34.979676-31.628348zM45.231669 560.085414h928.566464v-61.32981H45.231669z"  horiz-adv-x="1024" />

    
    <glyph glyph-name="xiazai" unicode="&#58904;" d="M0.021 384a93.773 93.773 0 1 1 191.917 0A93.773 93.773 0 1 1 0.021 384zM416.042 384a93.773 93.773 0 1 1 191.916 0 93.773 93.773 0 1 1-191.916 0zM831.454 384a93.773 93.773 0 1 1 191.917 0 93.773 93.773 0 1 1-191.917 0z"  horiz-adv-x="1024" />

    
    <glyph glyph-name="qunzu" unicode="&#58948;" d="M536.8 793.7c9.2-2.7 18.3-5.7 27.5-8.1C725.8 744.3 781.1 547.9 665 428.2c-5.2-5.4-10.4-10.9-14-14.8 35.5-24.9 72.5-45.8 103.4-73.6 82.2-74.1 116.7-169.5 116.1-279.2-0.5-88.3 0.3-88.3-87.1-88.3H211.5c-45.7 0-51.7 7.7-53.7 52.7-3.9 87.1 6.2 170.5 55.3 245.6 40.8 62.4 96.1 107.7 166.4 138.9-5.8 6.2-9.5 10.3-13.4 14.2-60.7 61.1-81.6 134.1-56.6 216.2 24.9 81.9 82.6 131.2 167 148.5 4.5 0.9 8.7 3.5 13.1 5.3h47.2zM229.9 45.10000000000002h566.6C805 162.60000000000002 764.2 256 666.2 318.29999999999995c-100.1 63.7-205.6 63.6-305.7 0-98-62.3-138.7-155.8-130.6-273.2z m425.6 528.7c2.1 79.3-59.1 144-138 146.1-78.2 2.1-143.9-58.6-146-134.9-2.2-82.5 59.6-148.6 140.6-150.2 75.6-1.5 141.4 62.3 143.4 139zM11.5 191.70000000000005c9.2 31.6 15.7 64.2 28.2 94.4C61.8 340 81.2 359 164.8 424.6c-29.9 38.1-46 80.8-42.4 130.3 5.3 73.8 52.3 134.6 122.7 156.8 26.5 8.4 46.9 1.2 54.1-19 7.5-20.9-2.9-37.3-30.6-48-73.6-28.4-99.4-107.7-53.3-167 9.9-12.7 26.6-20 37.7-32 9.8-10.6 23.1-25.1 22-36.7-1.1-11.5-16.1-26.9-28.4-31.5C132.5 334.6 85.4 268.29999999999995 85.3 146.10000000000002c0-4.9-0.1-9.8 0-14.7 0.7-21.5-0.2-42.8-25.4-50.4-25.2-7.6-37.3 10-48.4 28v82.7zM1014.9 109.10000000000002c-10.8-18.5-23.3-35.5-48.3-28-25.1 7.5-25.2 28.9-25.8 50.4-0.7 28.4 0.5 57.6-5.8 85-18.8 81.3-70.3 133.2-149.7 159.6-14.1 4.7-31.1 20.3-33.6 33.5-2.1 10.8 12.6 29.6 24.7 37.3 39.5 25.1 60.3 58.7 56.1 105.5-4.1 45.7-30 75.1-72.2 91.7-27.3 10.7-36.9 28-28.6 48.9 8.1 20.2 28.3 26.8 54.7 17.6 104.2-36 150.5-161.2 94.7-256.7-5.9-10.1-12.6-19.6-17.7-27.6 27-23.8 55.4-45.1 79.2-70.7 37.7-40.5 58.7-90.1 66.7-145 0.9-6.4 3.7-12.6 5.6-18.9v-82.6z"  horiz-adv-x="1024" />

    
    <glyph glyph-name="xingtaiduICON_sousuo---copy" unicode="&#58880;" d="M222.6944 673.2032A323.1488 323.1488 0 0 1 133.6832 384c19.2512 87.3728 64.512 172.7488 135.0144 243.3024C339.2512 697.8815999999999 424.6272 743.1168 512 762.3679999999999c-101.632 19.1488-210.688-10.5216-289.3056-89.1648zM989.44 73.88160000000005l-121.7024 121.7024a118.016 118.016 0 0 1-92.8 34.1248c114.4576 165.5552 97.92 394.3936-49.4848 541.824-165.9392 165.9904-435.0464 165.9904-601.0368 0-165.9392-165.9904-165.9392-435.1232 0-601.1136 147.4048-147.4304 376.064-163.84 541.7216-49.3824-2.56-33.28 8.8576-67.5328 34.1248-92.8l121.7024-121.728c46.08-45.9776 121.3696-45.9776 167.3472 0 46.208 45.9776 46.208 121.2928 0.128 167.3728zM676.096 219.904c-138.6752-138.6752-363.392-138.6752-502.016 0-138.6752 138.6752-138.6752 363.4432 0 502.1184 138.624 138.6752 363.3408 138.6752 502.016 0 138.6496-138.5728 138.6496-363.4432 0-502.1184z"  horiz-adv-x="1024" />

    
    <glyph glyph-name="xiaoxi2" unicode="&#59113;" d="M532.9 825C310 825 127.5 639 127.3 436.8 127.1 247 280 135 280 135l-0.4-197.4 185.1 118.6s45-5.5 68.2-5.5c222.9 0 404.6 172.9 404.6 386.2S755.8 825 532.9 825z m0-719.4c-14.4 0-45.4 3.1-61.5 5.1l-19.7 2.4-16.7-10.6-100.3-64.2 0.2 96.6 0.1 28-22.6 16.5c-0.3 0.2-32.4 24.3-64.7 68-19.2 26.1-34.5 53.6-45.4 81.9-13.4 34.8-20.2 70.9-20.1 107.4 0 41.7 9.2 83.3 27.3 123.4 17.6 39.1 43.7 76.1 75.4 107.2 32.7 31.9 70.4 57.1 112 74.8 43.5 18.5 89.2 27.8 135.9 27.8 47.3 0 93.2-8.9 136.5-26.6 41.7-17 79.1-41.3 111.3-72.2 32-30.7 57.1-66.4 74.6-106 18-40.8 27.2-84 27.2-128.4 0.1-182.5-156.7-331.1-349.5-331.1zM707.3 520.8H354.5c-15.1 0-27.5-12.4-27.5-27.5s12.4-27.5 27.5-27.5h352.8c15.1 0 27.5 12.4 27.5 27.5 0 15.2-12.4 27.5-27.5 27.5zM658.2 354.8H408.6c-15.1 0-27.5-12.4-27.5-27.5s12.4-27.5 27.5-27.5h249.5c15.1 0 27.5 12.4 27.5 27.5 0.1 15.2-12.3 27.5-27.4 27.5z"  horiz-adv-x="1024" />

    
    <glyph glyph-name="lianxiren" unicode="&#58892;" d="M937.7 40.9c0-19.2-17.1-34.7-38.3-34.7H159c-21.1 0-38.3 15.5-38.3 34.6v0.1s0 126 102 171.8c64.5 29 39.7 5.5 118.9 35.1s98 40 98 40l-4.6 52.1s-89 22.8-102.6 111.6c-27.4-6.7-36.5 27.2-38.1 48.8-1.5 20.8-15.9 85.9 17.6 80.1-6.8 43.5-11.7 82.6-9.3 103.4 4 35.1-5.5 40.1 29.8 68.4 8.7 7-7.5 39.6-2.2 50.3 9.7 19.7 81.8 10.7 92.8 15.1 28.8 11.6 62 19.1 99 20.7 150.5-5.6 210.1-81.7 218.5-154.5 2.4-20.8-2.9-60-9.8-103.4 33.5 5.8 18.9-59.2 17.3-80-1.5-21.6-10.7-55.3-38.1-48.7-13.7-88.8-86.4-111.4-86.4-111.4l-4.6-51.8s18.8-9.7 98-39.3c79.2-29.7 54.4-7.5 118.9-36.5 101.9-45.8 101.9-171.8 101.9-171.8z"  horiz-adv-x="1024" />

    
    <glyph glyph-name="ziyuan" unicode="&#58976;" d="M412.919298-127.987076a55.388845 55.388845 0 0 0-55.1048 46.725462L340.913799 29.658098999999993l-3.408544 1.56225A347.671522 347.671522 0 0 0 284.104727 60.76106600000003l-2.982476 2.13034-108.07926-42.606804a49.991983 49.991983 0 0 0-18.746994-3.266521 56.809072 56.809072 0 0 0-48.571756 28.404536L7.728591 211.44713000000002a53.116482 53.116482 0 0 0 13.066087 69.733136l91.320583 69.165046v4.118657a172.983625 172.983625 0 0 0-1.704272 29.398695c0 8.379338 0.710113 17.46879 1.56225 27.268355v3.834612l-2.840454 5.112817-87.912039 66.750659a53.684573 53.684573 0 0 0-13.066087 69.733136l99.415876 166.87665a52.832437 52.832437 0 0 0 47.719621 27.126332 54.820755 54.820755 0 0 0 19.741153-3.266522l107.795214-42.606804 2.982476 1.988318a396.669346 396.669346 0 0 0 53.684573 30.108808l3.550567 1.562249 15.33845 111.345782A54.962777 54.962777 0 0 0 412.919298 895.996449H610.756892a55.246823 55.246823 0 0 0 55.246823-47.009507l16.332608-110.2096 3.408544-1.562249a347.671522 347.671522 0 0 0 53.542551-29.966786l2.982476-2.13034 108.07926 42.606804a49.991983 49.991983 0 0 0 18.746994 3.266522 56.809072 56.809072 0 0 0 48.571756-28.404536l98.56374-166.024514a53.116482 53.116482 0 0 0-13.066086-69.733136l-91.036538-69.023022v-3.834613a292.282676 292.282676 0 0 0 1.846295-29.824763 292.424699 292.424699 0 0 0-1.846295-29.824762v-3.834613l91.036538-69.023022a53.116482 53.116482 0 0 0 14.202268-69.023023l-99.415876-167.586763a52.832437 52.832437 0 0 0-47.719621-27.126332 54.820755 54.820755 0 0 0-19.741153 3.266522l-107.795214 42.606804-2.982476-1.988318a397.663505 397.663505 0 0 0-53.684573-30.108808l-3.408545-1.562249-16.332608-111.203759A54.962777 54.962777 0 0 0 610.756892-127.987076z m-10.509678 162.615969l14.202268-102.398352h190.168369l19.741152 138.472113L659.328649 86.46717100000001a275.808045 275.808045 0 0 1 45.447257 25.564083l29.256673 19.315084 133.643342-51.838278 93.166878 157.645175L878.185599 299.50119199999995l-29.398695 22.723629 3.408545 36.925897a227.236289 227.236289 0 0 1 0.994158 24.711946A227.236289 227.236289 0 0 1 852.195449 408.858656l-3.408545 36.925897 29.398695 22.723629 82.6572 63.05807L866.397717 689.069404l-99.415877-39.19826-32.807239-12.640018-29.398695 19.315084a429.050517 429.050517 0 0 1-45.163212 25.42206L626.663432 697.1646969999999l-4.970794 36.073761-14.202268 102.398352H417.037956L397.722871 697.1646969999999l-32.665216-15.054404a276.660181 276.660181 0 0 1-45.447258-25.564083l-29.824763-19.315084-133.501319 51.838278-93.308901-157.645175 82.6572-63.05807 29.398695-22.723629-3.408545-36.925897a227.236289 227.236289 0 0 1-1.136181-24.711946 227.236289 227.236289 0 0 1 0.994159-24.853969l3.408544-36.925897-29.256672-22.723629-82.6572-62.916047 94.161037-157.645176 99.415876 39.19826 32.807239 12.640019 29.398695-19.315085A429.050517 429.050517 0 0 1 364.347542 86.46717100000001L397.722871 70.70265400000005zM511.341016 168.556281a215.448406 215.448406 0 1 0 215.874474 215.448406A215.590429 215.590429 0 0 0 511.341016 168.556281z m0 370.679195a155.23079 155.23079 0 1 1 156.224948-155.230789 155.372812 155.372812 0 0 1-156.224948 155.230789z"  horiz-adv-x="1024" />

    
    <glyph glyph-name="emoticon" unicode="&#59479;" d="M512 832c248.896 0 448-199.104 448-448S760.896-64 512-64 64 135.10400000000004 64 384 263.104 832 512 832z m0-64C299.792 768 128 596.2080000000001 128 384s171.792-384 384-384 384 171.792 384 384S724.208 768 512 768zM342.752 563.2c29.872 0 54.752-29.872 54.752-59.728 0-29.872-24.88-54.768-54.752-54.768-29.856 0-54.752 29.872-54.752 59.744 0 29.856 24.896 54.752 54.752 54.752z m338.496 0c29.856 0 54.752-24.896 54.752-54.752 0-29.872-24.896-54.752-54.752-54.752-29.872 0-54.752 24.88-54.752 54.752 0 29.856 24.88 54.752 54.752 54.752zM512 140.096c-109.504 0-199.104 89.6-199.104 199.104h398.208c0-109.504-89.6-199.104-199.104-199.104z"  horiz-adv-x="1024" />

    
    <glyph glyph-name="biaoqing" unicode="&#59431;" d="M512 896a512 512 0 1 1 512-512A512 512 0 0 1 512 896z m0-952.32A441.250909 441.250909 0 1 0 953.250909 384 441.250909 441.250909 0 0 0 512-57.250909zM672.116364 279.272727A199.68 199.68 0 0 0 512 180.130909a199.68 199.68 0 0 0-160.116364 99.141818 39.098182 39.098182 0 0 1-62.836363-46.545454 274.618182 274.618182 0 0 1 222.952727-130.327273 274.618182 274.618182 0 0 1 222.952727 130.792727 39.098182 39.098182 0 0 1-62.836363 46.545455zM325.818182 436.130909a69.818182 69.818182 0 1 1-69.818182 69.818182A69.818182 69.818182 0 0 1 325.818182 436.130909zM709.352727 575.767273a69.818182 69.818182 0 1 1 0-139.636364 69.818182 69.818182 0 0 1 0 139.636364z"  horiz-adv-x="1024" />

    
    <glyph glyph-name="lianxiren1" unicode="&#58885;" d="M0 67.221c0-98.884 185.6-179.053 414.568-179.053 228.969 0 414.59 80.169 414.59 179.053 0 82.358-128.737 151.685-304.021 172.568v61.579l138.189 192.821-27.643 27.537-27.642 192.82-82.904 165.286-110.569-55.096h-82.905L221.116 714.547l-27.642-192.82-27.642-27.537 138.189-192.821v-61.579C128.716 218.905 0 149.579 0 67.221zM868.989 38C961.958 62.61 1024 106.989 1024 157.642c0 64.442-100.4 118.695-237.137 135.053v48.189l107.789 150.905-21.558 21.559-21.558 150.905L786.863 793.6l-86.231-43.115h-64.674l-4.105-4.084 19.306-31.854 27.642-192.82 27.643-27.537-100.884-140.8 8.842-12.506v-48.189a633.866 633.866 0 0 1-46.127-7.221l-0.021-2.568c150.442-17.938 304.021-96.801 304.021-215.685A131.368 131.368 0 0 0 868.989 38z"  horiz-adv-x="1024" />

    
    <glyph glyph-name="wenjian" unicode="&#58887;" d="M1101.244583 35.405088a74.27459 74.27459 0 0 0-74.27459-74.27459H163.899261a74.27459 74.27459 0 0 0-74.274589 74.27459V643.961559h937.345321a74.27459 74.27459 0 0 0 74.27459-74.27459zM89.129508 792.015574a14.854918 14.854918 0 0 0 14.854918 14.854918H495.163931a14.854918 14.854918 0 0 0 12.874262-7.427459L544.680324 732.595903H89.129508z m937.840485-59.419671h-376.324587L583.798275 846.483607A104.479589 104.479589 0 0 1 495.163931 896H103.984426A103.984426 103.984426 0 0 1 0 792.015574v-756.610486a163.404097 163.404097 0 0 1 163.899261-163.404098h863.070732a163.404097 163.404097 0 0 1 161.423442 163.404098V569.686969a163.404097 163.404097 0 0 1-163.899261 163.404098z m0 0M200.046228 219.110906m49.516393 0l693.229504 0q49.516393 0 49.516393-49.516393l0 0q0-49.516393-49.516393-49.516393l-693.229504 0q-49.516393 0-49.516393 49.516393l0 0q0 49.516393 49.516393 49.516393Z"  horiz-adv-x="1190" />

    
    <glyph glyph-name="sign-out" unicode="&#59548;" d="M212.48 104.448V669.696c0 13.312 10.752 24.064 24.064 24.064h313.344V797.184H236.544c-70.144 0-127.488-57.344-127.488-127.488v-565.248c0-70.144 57.344-127.488 127.488-127.488h313.344v103.424H236.032c-12.8 0-23.552 10.752-23.552 24.064zM916.48 394.24l-142.848 191.488c-1.024 1.536-3.072 3.072-11.264 3.072-4.096-1.536-6.656-5.632-6.656-10.24v-142.336H444.416c-25.088 0-45.568-22.016-45.568-49.152s20.48-49.152 45.568-49.152h311.296v-142.336c0-4.608 2.56-8.704 6.656-10.24 1.024-0.512 2.048-0.512 3.072-0.512 3.072 0 6.144 1.536 7.68 4.096l142.848 191.488c3.072 4.096 3.072 9.728 0.512 13.824z"  horiz-adv-x="1024" />

    
    <glyph glyph-name="icon" unicode="&#58888;" d="M217.227636 413.463273h-176.872727v-58.926546h176.872727v58.926546z m0 176.872727h-176.872727v-58.926545h176.872727V590.336zM865.745455 855.645091H217.227636A117.899636 117.899636 0 0 1 99.281455 737.745455v-29.463273H158.254545c0 48.826182 39.563636 88.436364 88.436364 88.436363h589.591273c48.826182 0 88.436364-39.610182 88.436363-88.436363v-648.564364a88.436364 88.436364 0 0 0-88.436363-88.436363H246.690909a88.436364 88.436364 0 0 0-88.436364 88.436363H99.281455v-29.463273c0-65.117091 52.829091-117.899636 117.946181-117.899636H865.745455c65.117091 0 117.899636 52.782545 117.899636 117.899636V737.745455C983.645091 802.862545 930.909091 855.645091 865.745455 855.645091zM335.127273 177.664h58.973091a147.409455 147.409455 0 0 0 294.772363 0h58.973091a206.289455 206.289455 0 0 1-110.545454 182.784 147.409455 147.409455 0 1 1-191.627637 0A206.289455 206.289455 0 0 1 335.127273 177.664zM541.463273 560.872727a88.436364 88.436364 0 1 0 0-176.872727 88.436364 88.436364 0 0 0 0 176.872727z m-324.235637-324.282182h-176.872727v-58.926545h176.872727v58.926545z"  horiz-adv-x="1024" />

    
    <glyph glyph-name="qrcode" unicode="&#58881;" d="M742.8 774.5c-2.3-0.3-4.7-0.1-7-0.1-38 0-76 0.1-114-0.1-11 0-21.9-1.4-32.4-5.1-18.6-6.5-29.8-19.5-34.4-38.4-1.7-7-2.4-14.1-2.4-21.3 0-67.2-0.1-134.3 0.1-201.5 0-13.8 0.9-27.6 6.2-40.8 6.9-17.1 19.7-27.2 37.3-31.7 6.3-1.6 12.8-2.2 19.3-2.2h218c8.3 0 16.6 0.7 24.8 2.3 24.4 4.5 40.4 20.7 44.9 45 0.4 2.2-0.4 5.2 2.9 6.2v232c-0.4 0.4-0.5 0.9-0.5 1.5-1.5 4.8-1.7 9.8-3.3 14.7-7.1 21-21.7 33.4-42.8 38.8-6.4 1.6-12.8 2.4-19.5 2.1-1.3-0.1-3-1-3.9 0.9h-89c-0.4-2.6-2.7-2.1-4.3-2.3z m98.7-40.7c4 0 8.1-0.9 11.9-2.1 6.9-2.2 10.7-7.6 10.7-15.1 0-74.8 0.1-149.6-0.1-224.4 0-11.2-8.6-18-21.1-18.1-38.2-0.3-76.3-0.1-114.5-0.1h-113c-4.5 0-8.6 1.3-12.7 2.7-8.5 3.1-9.6 10.5-9.7 17.9-0.2 37.5-0.1 75-0.1 112.5V712.6c0 6.5 1.5 12.5 6.9 17 4.6 3.8 10.3 4.3 15.6 4.3 75.4 0.1 150.8 0 226.1-0.1zM742 776c-39.5-0.1-79-0.1-118.4-0.1-9.4 0-18.6-1-27.7-3.1-11.6-2.7-22.1-7.7-30-16.7-10.6-12.1-14.8-26.9-14.8-42.6-0.2-69.6-0.2-139.3 0-208.9 0-9.1 0.7-18.3 2.8-27.2 2.8-11.7 7.6-22.5 16.7-30.5 11.7-10.3 25.9-15 41.5-15 74.1-0.1 148.3-0.1 222.4 0 9.3 0 18.7 0.5 27.7 3 19 5.4 33.6 15.9 40 35.8 1.7 5.3 1.8 10.9 3.8 16.1-3.2-1-2.5-4-2.9-6.2-4.5-24.4-20.5-40.5-44.9-45-8.2-1.5-16.5-2.3-24.8-2.3h-218c-6.5 0-13 0.6-19.3 2.2-17.5 4.5-30.4 14.6-37.3 31.7-5.3 13.1-6.2 27-6.2 40.8-0.2 67.2-0.1 134.3-0.1 201.5 0 7.2 0.7 14.3 2.4 21.3 4.6 18.9 15.8 31.9 34.4 38.4 10.5 3.7 21.4 5 32.4 5.1 38 0.2 76 0.1 114 0.1 2.3 0 4.7-0.2 7 0.1 1.7 0.2 3.9-0.2 4.2 2.4-1.2-2.1-3.2-0.9-4.9-0.9zM120.6 485.7c2-12.5 5.5-24.4 14.3-34 11.5-12.7 26.5-18 43-18.1 75.1-0.3 150.2-0.3 225.4 0 9.4 0 18.9 1 28.1 3.9 24.5 7.7 39.1 27.3 39.1 53.1 0 74 0 147.9 0.1 221.9 0 6.4-0.8 12.6-2.4 18.8-5.8 22.4-24.5 39.1-47.5 42.3-4.1 0.6-8.2 1.1-12.4 1.1-2 0-4.5-0.6-5.2 2.4h-89c-1.3-2.1-3.3-0.9-4.9-0.9-41.1-0.1-82.2 0.2-123.3-0.2-14.8-0.1-29.2-2.6-42.2-10.7-12.5-7.8-19.8-19.1-23.7-33-0.8-2.7-0.2-5.7-1.9-8.2v-233c2.9-0.9 2.2-3.5 2.5-5.4z m39.5 231c0 8.1 6.2 14.6 14.5 16.3 4.4 0.9 8.8 1 13.2 1h219c4.3 0 8.4-0.8 12.4-2 7.5-2.4 10.8-6.9 10.8-14.6v-225.5c0-8.2-3.8-13.3-11.6-15.9-4-1.3-8.1-2.1-12.4-2-37.2 0.1-74.3 0.1-111.5 0.1-37.7 0-75.3-0.1-113 0.1-6.3 0-12.6 0.9-17.3 6.1-2.7 3-4.1 6.3-4.1 10.1-0.1 75.3-0.1 150.8 0 226.3zM119 488.5c0.1-8.9 2.6-17.3 6.4-25.1 10.4-21.4 28.9-31 51.6-31.2 74.5-0.6 149-0.2 223.4-0.2 9.3 0 18.6 0.8 27.7 3 27.1 6.7 43.6 26.4 43.8 54.4 0.5 73.8 0.2 147.6 0.2 221.4 0 4.9 0 9.8-0.9 14.7-3 16.2-10.7 29.4-24.2 39-11 7.8-23.5 11-36.9 11.4-2.3 0.1-4.9-1.2-6.9 0.9 0.7-3 3.3-2.4 5.2-2.4 4.2 0 8.3-0.6 12.4-1.1 23-3.2 41.7-19.9 47.5-42.3 1.6-6.2 2.4-12.4 2.4-18.8-0.1-74 0-147.9-0.1-221.9 0-25.7-14.6-45.3-39.1-53.1-9.2-2.9-18.7-3.9-28.1-3.9-75.1-0.2-150.2-0.3-225.4 0-16.5 0.1-31.4 5.4-43 18.1-8.8 9.7-12.3 21.5-14.3 34-0.3 1.9 0.4 4.6-2.6 5.2 1.3-0.1 0.9-1.3 0.9-2.1zM191.8 13.299999999999955c2.1 0.3 4.3 0.1 6.5 0.1h206c8.4 0 16.6 1 24.7 3.1 25.5 6.6 41.4 26.9 41.5 53.2 0.1 25.3 0 50.7 0 76v148c0 32.3-21.4 56.2-53.6 59.7-11.4 1.2-22.9 1.7-34.4 2-34.5 0.7-69-0.5-103.4-1.3-33-0.8-66-0.2-98.9-0.7-11.5-0.2-22.6-2.7-32.7-8.1-13.6-7.2-21.9-18.5-25.7-33.4-0.7-2.8-0.1-6.5-3.7-8v-234c2-5.5 2.2-11.4 3.9-17.1 5.9-20.7 19.4-33.3 39.8-38.9 6.5-1.8 13.2-2.3 19.9-2.1 1.4 0 3.3 1.1 4.4-0.9h2c0.2 2.3 2.1 2.2 3.7 2.4z m-11.4 40.6c-12.2 0-20.7 6.6-20.6 20.5 0.4 73.3 0.2 146.6 0.1 220 0 11.8 7 18.1 18.3 18.5 74.6 2.4 149.1 0.5 223.7 0.8 6.4 0 13.4 0.4 19.6-3 5.4-3 8.5-7.2 8.5-13.7-0.1-37.5 0-75 0-112.5 0-37.2-0.2-74.3 0.1-111.5 0.1-12.1-7.8-17.6-18.7-19.3-8.6-1.3-17 0-25.5 0.1-68.5 0.2-137 0.1-205.5 0.1zM193.5 11.799999999999955c67.8 0.1 135.7 0.1 203.5 0 9.4 0 18.7 0.2 28 2.1 12.5 2.5 23.8 7.8 32.5 17.1 9.7 10.4 14.5 23.4 14.5 37.6 0.2 74.3 0.1 148.7 0.1 223 0 6.3-0.4 12.4-2 18.5-5.3 19.9-17.3 33.7-36.7 41.3-13.3 5.2-27.3 5-41 5.3-23.1 0.5-46.2 0.9-69.3-0.5-19-1.2-38.2-0.3-57.3-1-27.6-0.9-55.3-0.3-83-0.2-6.4 0-12.7-0.6-19-2-18.4-4.2-32.5-13.8-40.6-31.3-2.6-5.7-2.8-12-5.2-17.7 3.7 1.5 3 5.2 3.7 8 3.8 14.9 12.2 26.2 25.7 33.4 10.2 5.4 21.2 7.9 32.7 8.1 33 0.5 65.9-0.1 98.9 0.7 34.5 0.8 68.9 2 103.4 1.3 11.5-0.2 23-0.7 34.4-2 32.2-3.5 53.5-27.4 53.6-59.7v-148c0-25.3 0.1-50.7 0-76-0.2-26.4-16-46.6-41.5-53.2-8.1-2.1-16.3-3.1-24.7-3.1h-206c-2.2 0-4.3 0.1-6.5-0.1-1.6-0.2-3.5 0-3.7-2.4 1.5 1.9 3.7 0.8 5.5 0.8zM143.6 765.1c13 8 27.4 10.6 42.2 10.7 41.1 0.4 82.2 0.1 123.3 0.2 1.6 0 3.6-1.2 4.9 0.9-1.7-1-3.6-0.5-5.4-0.5-44.8-0.3-89.6 0.8-134.4-0.6-18.9-0.6-34.9-8.1-46.5-23.6-6.3-8.4-9.1-18-9.7-28.3 1.8 2.4 1.2 5.4 1.9 8.2 4 13.9 11.2 25.2 23.7 33zM840 776c6.6 0.3 13.1-0.5 19.5-2.1 21-5.4 35.7-17.8 42.8-38.8 1.6-4.8 1.8-9.9 3.3-14.7v0.4c0.4 28.1-24.4 53.2-52.7 55.3-5.6 0.4-11.2-0.5-16.8 0.9 0.8-2.1 2.6-1.1 3.9-1zM181.6 11.799999999999955c-6.7-0.2-13.4 0.3-19.9 2.1-20.4 5.6-33.9 18.2-39.8 38.9-1.6 5.7-1.8 11.6-3.9 17.1 1.1-5.3 0.8-10.8 2.1-16.1 5.5-22.8 25.5-40.6 48.6-42 5.8-0.4 11.6 0.6 17.3-0.8-1.1 1.9-3 0.9-4.4 0.8zM608.4 228.79999999999995c-12.3-0.2-20.4-8.3-20.4-20V37c0-12.3 8.5-20.1 20.8-19.9 12.9 0.2 21 6.9 21.1 19.7 0.2 57.4 0.1 114.9 0 172.3 0 12-8.4 19.9-21.5 19.7zM861.4 228.60000000000002c-9.9 1.8-23.3-4.9-23.3-18.2-0.2-29.2 0-58.3 0-87.5v-87c0-1.6-0.1-3.4 0.4-4.9 3.3-9.4 14.4-16.2 23.5-14 11.4 2.7 17.9 7.2 18 21.4 0.2 55.5 0.1 111 0.1 166.5-0.1 14.4-4.6 21.1-18.7 23.7zM768.7 168.70000000000005c-2.6 9.4-13 16.8-22.1 15.1-12.4-2.4-19.4-6.6-19.5-20.9-0.3-41.1-0.1-82.3-0.1-123.4 0-13.8 5.7-20 17.5-22.2 11.1-2.1 24.4 4.5 24.5 19.1v63.5 64.5c0 1.3 0 2.9-0.3 4.3zM741 351.20000000000005c-8.7-1.9-14-10.2-14-19.8V243c0-13.1 4-21 18.1-23.7 10.3-1.9 24 5.2 23.9 18.5-0.1 15.8 0 31.6 0 47.5 0 15.3-0.2 30.6 0 46 0.3 19-14.6 22.8-28 19.9zM622 348.6c-4.9 3.4-10.1 3.3-15.4 3.3-10.5 0-18.5-7.9-18.5-18.3v-26c0-9-0.1-18 0-27 0.1-4.6 1.3-8.7 4.9-12.3 5.2-5.2 11.2-6.7 18.2-6.5 9.9 0.3 18.8 8.9 18.8 18.7 0.1 17.7 0.2 35.3-0.1 53 0 6.1-2.4 11.3-7.9 15.1zM878.3 340.1c-2.2 6.2-9.8 11.8-17.9 12-14.3 0.5-23.6-7.9-22.5-22.8 0.5-7 0.1-14 0.1-21v-25c0-1.5 0-3 0.4-4.4 3.2-10.3 12.9-15.5 23.9-14 11 1.6 17.4 8.4 17.6 19.7 0.3 15.8 0.1 31.7 0.1 47.5 0 2.9-0.8 5.5-1.7 8zM352 638.2c-1.9 7.3-7.9 12.7-15.4 13.7-1.3 0.2-2.7 0.4-4 0.4-0.6 0-1.5-0.2-1.7 0.8h-28.8c-0.4-0.7-1.1-0.3-1.6-0.3-13.3 0-26.6 0.1-39.9-0.1-4.8 0-9.5-0.9-13.7-3.5-4.1-2.5-6.4-6.2-7.7-10.7-0.2-0.9 0-1.9-0.6-2.6v-75.5c1-0.2 0.7-1.1 0.8-1.7 0.7-4.1 1.8-7.9 4.6-11 3.7-4.1 8.6-5.8 13.9-5.9 24.3-0.1 48.7-0.1 73 0 3.1 0 6.1 0.3 9.1 1.3 7.9 2.5 12.7 8.9 12.7 17.2v71.9c0.1 2-0.2 4-0.7 6zM785.5 645.9c-1.9 7.3-7.9 12.7-15.4 13.7-1.3 0.2-2.7 0.4-4 0.4-0.6 0-1.5-0.2-1.7 0.8h-28.8c-0.4-0.7-1.1-0.3-1.6-0.3-13.3 0-26.6 0.1-39.9-0.1-4.8 0-9.5-0.9-13.7-3.5-4.1-2.5-6.4-6.2-7.7-10.7-0.2-0.9 0-1.9-0.6-2.6v-75.5c1-0.2 0.7-1.1 0.8-1.7 0.7-4.1 1.8-7.9 4.6-11 3.7-4.1 8.6-5.8 13.9-5.9 24.3-0.1 48.7-0.1 73 0 3.1 0 6.1 0.3 9.1 1.3 7.9 2.5 12.7 8.9 12.7 17.2v71.9c0.2 2-0.2 4.1-0.7 6zM351.4 219.39999999999998c-1.9 7.3-7.9 12.7-15.4 13.7-1.3 0.2-2.7 0.4-4 0.4-0.6 0-1.5-0.2-1.7 0.8h-28.8c-0.4-0.7-1.1-0.3-1.6-0.3-13.3 0-26.6 0.1-39.9-0.1-4.8 0-9.5-0.9-13.7-3.5-4.1-2.5-6.4-6.2-7.7-10.7-0.2-0.9 0-1.9-0.6-2.6v-75.5c1-0.2 0.7-1.1 0.8-1.7 0.7-4.1 1.8-7.9 4.6-11 3.7-4.1 8.6-5.8 13.9-5.9 24.3-0.1 48.7-0.1 73 0 3.1 0 6.1 0.3 9.1 1.3 7.9 2.5 12.7 8.9 12.7 17.2v71.9c0.1 2-0.2 4-0.7 6z"  horiz-adv-x="1024" />

    
    <glyph glyph-name="fasong" unicode="&#58899;" d="M439.104-128l124.288 194.176-124.288 40.96V-128zM0 328.96l353.216-122.24 434.944 422.08-337.152-454.656 377.6-133.248L1023.168 895.168 0 328.96v-0.064z"  horiz-adv-x="1024" />

    
    <glyph glyph-name="wenjian1" unicode="&#58917;" d="M910.8 535.5v61.7c0 53-42 112.3-98.3 112.3H529.1l-11.7 22c-11.7 22.4-34.6 36.2-59.8 36.2H155.2c-50.4 0-91.5-42.2-91.5-94v-575.6c0-51.8 41-94 91.5-94h711.6c50.4 0 91.5 42.2 91.5 94V451.5c0 30.6-20.3 63-47.5 84z m-98.3 117.6c19.5 0 41.8-29.8 41.8-55.8v-39c-1 0-1.9 0.1-2.9 0.1H609.2L559 653.1h253.5z m89.3-554.9c0-20.7-15.7-37.5-35-37.5H155.2c-19.3 0-35 16.8-35 37.5V673.8c0 20.7 15.7 37.6 35 37.6h302.4c4.1 0 7.9-2.3 9.9-6.1l99.8-188.4c4.9-9.2 14.5-15 24.9-15h259.2c20.2 0 50.3-30.1 50.3-50.4v-353.3z m0 0"  horiz-adv-x="1024" />

    
    <glyph glyph-name="biaoqing1" unicode="&#58882;" d="M512.024355-128A512.53582 512.53582 0 0 0 0.024355 384 512.58453 512.58453 0 0 0 512.024355 896 512.58453 512.58453 0 0 0 1023.926934 384a512.53582 512.53582 0 0 0-511.902579-512z m0 950.836267a439.323376 439.323376 0 0 1-438.836266-438.836267 439.323376 439.323376 0 0 1 438.836266-438.836267 439.323376 439.323376 0 0 1 438.836267 438.836267 439.323376 439.323376 0 0 1-438.836267 438.836267z m1.217772-737.531348a327.337075 327.337075 0 0 0-259.336695 126.648273 36.533156 36.533156 0 0 0 6.234992 51.292551 36.533156 36.533156 0 0 0 51.341262-6.234992 254.563029 254.563029 0 0 1 201.71173-98.347256 254.319475 254.319475 0 0 1 203.026925 100.052136 36.533156 36.533156 0 0 0 51.243839 6.722101 36.533156 36.533156 0 0 0 6.722101-51.292551 326.996099 326.996099 0 0 0-261.041575-128.645419z m-164.594044 294.993055a54.848444 54.848444 0 0 0-54.848445 54.848444v73.066312a54.848444 54.848444 0 0 0 54.848445 54.848444 54.848444 54.848444 0 0 0 54.848444-54.848444v-73.066312a54.897155 54.897155 0 0 0-54.848444-54.848444z m329.139378 0a54.848444 54.848444 0 0 0-54.848445 54.848444v73.066312a54.848444 54.848444 0 0 0 54.848445 54.848444 54.848444 54.848444 0 0 0 54.848444-54.848444v-73.066312a54.897155 54.897155 0 0 0-54.848444-54.848444z m0 0"  horiz-adv-x="1024" />

    
    <glyph glyph-name="xiaoxi-copy" unicode="&#58883;" d="M836.033 107.20000000000005l6-5.99999999 117.8-117.80000001-235.6 0-206.5-0.2-5.79999999 0c-247.40000001 0-448 179.5-448.00000002 400.8s200.60000001 400.8 448.00000002 400.8 448-179.5 447.99999999-400.8c0.1-107.4-47.1-204.9-123.9-276.8z m-182.60000001 206.1c39.09999999 0 70.7 31.69999999 70.70000001 70.7s-31.69999999 70.7-70.70000001 70.7c-39.09999999 0-70.7-31.69999999-70.7-70.7s31.69999999-70.7 70.7-70.7z m-282.89999998 0c39.09999999 0 70.7 31.69999999 70.7 70.7s-31.69999999 70.7-70.7 70.7-70.7-31.69999999-70.7-70.7 31.60000001-70.7 70.7-70.7z"  horiz-adv-x="1024" />

    
    <glyph glyph-name="clear-1" unicode="&#58886;" d="M512 834C263 834 62 633 62 384s201-450 450-450 450 201 450 450S761 834 512 834m189-639c-11.99999999-11.99999999-33.00000001-11.99999999-45 0L512 339 368 195c-11.99999999-11.99999999-33.00000001-11.99999999-45 0-11.99999999 11.99999999-11.99999999 33.00000001 0 45L467 384 323 528c-11.99999999 11.99999999-11.99999999 33.00000001 0 45 11.99999999 11.99999999 33.00000001 11.99999999 45 0L512 429l144 144c11.99999999 11.99999999 33.00000001 11.99999999 45 0 11.99999999-11.99999999 11.99999999-33.00000001 0-45L557 384l144-144c15-11.99999999 15-33.00000001 0-45m0 0z"  horiz-adv-x="1024" />

    
    <glyph glyph-name="shezhi" unicode="&#58890;" d="M881 384c0 52.4 32.9 96.8 79 114.5-11 43.2-28 83.9-50.2 121.3C864.6 599.7 810 607.9 773 645c-37 37-45.2 91.7-25.1 136.8C710.4 804 669.7 821 626.5 832c-17.8-46.1-62.2-79-114.5-79-52.4 0-96.8 32.9-114.5 79-43.2-11-83.9-28-121.3-50.2 20.1-45.2 11.9-99.8-25.1-136.8-37-37-91.7-45.2-136.8-25.2C92 582.4 75 541.7 64 498.5c46.1-17.8 79-62.2 79-114.5 0-52.4-32.9-96.8-79-114.5 11-43.2 28-83.9 50.2-121.3C159.4 168.3 214 160.1 251 123c37-37 45.2-91.7 25.1-136.8C313.6-36 354.3-53 397.5-64c17.8 46.1 62.2 79 114.5 79 52.4 0 96.8-32.9 114.5-79 43.2 11 83.9 28 121.3 50.2-20.1 45.2-11.9 99.8 25.1 136.8 37 37 91.7 45.2 136.8 25.2C932 185.6 949 226.3 960 269.5c-46.1 17.7-79 62.1-79 114.5zM512 261c-67.9 0-123 55.1-123 123s55.1 123 123 123 123-55.1 123-123-55.1-123-123-123z"  horiz-adv-x="1024" />

    
    <glyph glyph-name="xiaoxi3" unicode="&#58889;" d="M857.6352 88.74666666999997l6.4-6.4 125.65333333-125.65333334h-251.30666666l-220.26666667-0.21333333h-6.18666667c-263.89333333 0-477.86666667 191.46666667-477.86666666 427.52s213.97333333 427.52 477.86666666 427.52 477.86666667-191.46666667 477.86666667-427.52c0.10666667-114.56-50.24-218.56-132.16-295.25333333z m-194.77333333 219.84c41.70666667 0 75.41333333 33.81333333 75.41333333 75.41333333s-33.81333333 75.41333333-75.41333333 75.41333333c-41.70666667 0-75.41333333-33.81333333-75.41333334-75.41333333s33.81333333-75.41333333 75.41333334-75.41333333z m-301.76 0c41.70666667 0 75.41333333 33.81333333 75.41333333 75.41333333s-33.81333333 75.41333333-75.41333333 75.41333333-75.41333333-33.81333333-75.41333334-75.41333333 33.70666667-75.41333333 75.41333334-75.41333333z"  horiz-adv-x="1024" />

    
    <glyph glyph-name="lianxiren2" unicode="&#58961;" d="M321.863 563.772c0-65.368 34.863-125.757 91.479-158.459 56.616-32.685 126.343-32.685 182.959 0 56.616 32.702 91.479 93.091 91.479 158.459 0 101.057-81.885 182.959-182.959 182.959-101.037 0-182.958-81.902-182.958-182.959z m253.638-228.57H448.389C317.835 335.166 212 229.331 212 98.776c0-42.755 34.68-77.508 77.563-77.508h444.909c42.811 0 77.527 34.698 77.527 77.508-0.109 130.555-105.944 236.334-236.498 236.426z m0 0"  horiz-adv-x="1024" />

    
    <glyph glyph-name="jia1" unicode="&#58891;" d="M902.29224748 867.89572095h-791.82936158a75.41232014 75.41232014 0 0 1-75.41232014-75.41232015v-791.82936156a75.41232014 75.41232014 0 0 1 75.41232014-75.41232015h791.82936158a75.41232014 75.41232014 0 0 1 75.41232014 75.41232015V792.4834008a75.41232014 75.41232014 0 0 1-75.41232014 75.41232015z m18.85308002-848.38860168a37.70616007 37.70616007 0 0 0-37.70616006-37.70616007h-754.12320151a37.70616007 37.70616007 0 0 0-37.70616006 37.70616007V773.63032078a37.70616007 37.70616007 0 0 0 37.70616006 37.70616005h754.12320151a37.70616007 37.70616007 0 0 0 37.70616006-37.70616005v-754.12320151zM789.17376724 424.84834009h-565.59240112v-0.24509005c-0.79182937 0.05655924-1.54595255 0.24509004-2.35663499 0.24509005a28.27962006 28.27962006 0 0 1 0-56.55924012c0.79182937 0 1.56480564 0.16967772 2.35663499 0.26394311v-0.26394311h565.59240112a28.27962006 28.27962006 0 0 1 0 56.55924012zM476.92905567 680.53381155v-565.59240112h0.24509005c-0.05655924-0.79182937-0.24509004-1.54595255-0.24509005-2.35663502a28.27962006 28.27962006 0 0 1 56.5592401 0c0 0.79182937-0.16967772 1.56480564-0.26394312 2.35663502h0.26394312v565.59240112a28.27962006 28.27962006 0 0 1-56.5592401 0z"  horiz-adv-x="1024" />

    
    <glyph glyph-name="qingchu1" unicode="&#59320;" d="M512-128C229.216-128 0 101.216 0 384S229.216 896 512 896s512-229.216 512-512-229.216-512-512-512z m0 565.888l-168.352 168.384a39.36 39.36 0 1 1-55.712-55.68l168.352-168.384-168.352-168.384a39.36 39.36 0 1 1 55.68-55.68L512 326.496l168.352-168.352a39.36 39.36 0 1 1 55.712 55.68l-168.352 168.384 168.352 168.352a39.36 39.36 0 0 1-55.68 55.68L512 437.952z"  horiz-adv-x="1024" />

    
    <glyph glyph-name="ico" unicode="&#58893;" d="M810.77943309 889.51719506c-2.97743803-0.38836148-6.08432987-0.12945383-9.06176791-0.12945382-49.19245431 0-98.38490864 0.12945383-147.57736296-0.12945383-14.23992098 0-28.35038815-1.81235358-41.94304-6.60214519-24.07841185-8.41449876-38.5772405-25.2434963-44.53211653-49.71026963-2.20071506-9.0617679-3.10689185-18.25298963-3.10689186-27.57366518 0-86.99297185-0.12945383-173.85648987 0.12945382-260.84946172 0-17.86462815 1.16508445-35.7292563 8.02613729-52.8171615 8.93231408-22.13660445 25.50240395-35.21144098 48.28627753-41.03686321 8.15559111-2.07126124 16.57008987-2.84798419 24.98458864-2.84798418h282.2093432c10.74466765 0 21.48933531 0.9061768 32.10454916 2.97743802 31.58673383 5.82542222 52.29934617 26.79694222 58.12476838 58.25422221 0.51781531 2.84798419-0.51781531 6.73159902 3.75416098 8.02613728v300.33287902c-0.51781531 0.51781531-0.64726914 1.16508445-0.64726913 1.94180742-1.94180741 6.2137837-2.20071506 12.68647506-4.27197629 19.02971258-9.19122173 27.1853037-28.0914805 43.23757827-55.40623802 50.22808494-8.28504494 2.07126124-16.57008987 3.10689185-25.2434963 2.71853037-1.68289975-0.12945383-3.88361482-1.29453827-5.04869926 1.16508445h-115.21390618c-0.51781531-3.3657995-3.49525333-2.71853037-5.56651456-2.97743803z m127.77092741-52.68770765c5.17815309 0 10.48576-1.16508445 15.40500542-2.71853038 8.93231408-2.84798419 13.8515595-9.83849086 13.85155951-19.54752789 0-96.83146272 0.12945383-193.66292543-0.12945382-290.49438816 0-14.49882864-11.13302914-23.30168889-27.31475753-23.43114271-49.45136197-0.38836148-98.77327013-0.12945383-148.22463211-0.12945382h-146.28282469c-5.82542222 0-11.13302914 1.68289975-16.44063604 3.49525333-11.00357531 4.01306864-12.42756741 13.59265185-12.55702124 23.17223505-0.25890765 48.54518518-0.12945383 97.09037037-0.12945383 145.63555556V809.38527605c0 8.41449876 1.94180741 16.18172839 8.93231408 22.00715062 5.95487605 4.91924543 13.33374419 5.56651457 20.19479703 5.56651457 97.60818569 0.12945383 195.21637136 0 292.69510322-0.12945383zM809.74380247 891.45900247c-51.13426173-0.12945383-102.26852347-0.12945383-153.27333136-0.12945383-12.16865975 0-24.07841185-1.29453827-35.85871013-4.01306864-15.01664395-3.49525333-28.60929581-9.96794469-38.83614815-21.61878914-13.72210569-15.66391309-19.15916642-34.8230795-19.15916641-55.14733036-0.25890765-90.0998637-0.25890765-180.32918124 0-270.42904495 0-11.78029827 0.9061768-23.69005037 3.62470716-35.21144098 3.62470717-15.14609778 9.83849086-29.12711111 21.61878914-39.48341729 15.14609778-13.33374419 33.52854124-19.41807408 53.72333826-19.41807408 95.92528592-0.12945383 191.98002569-0.12945383 287.90531161 0 12.03920592 0 24.20786569 0.64726914 35.85871013 3.88361483 24.59622717 6.99050667 43.49648592 20.58315852 51.78153086 46.34447012 2.20071506 6.86105283 2.33016889 14.11046717 4.91924544 20.84206616-4.14252247-1.29453827-3.23634569-5.17815309-3.75416099-8.02613728-5.82542222-31.58673383-26.53803457-52.4288-58.1247684-58.25422221-10.61521383-1.94180741-21.35988148-2.97743803-32.10454913-2.97743802h-282.20934322c-8.41449876 0-16.82899753 0.77672297-24.98458864 2.84798418-22.65441975 5.82542222-39.35396347 18.90025876-48.28627753 41.03686321-6.86105283 16.95845136-8.02613728 34.95253333-8.02613728 52.8171615-0.25890765 86.99297185-0.12945383 173.85648987-0.12945383 260.84946172 0 9.32067555 0.9061768 18.51189728 3.10689185 27.57366518 5.95487605 24.46677333 20.45370469 41.29577086 44.53211654 49.71026963 13.59265185 4.78979161 27.70311902 6.47269136 41.94304 6.60214519 49.19245431 0.25890765 98.38490864 0.12945383 147.57736297 0.12945383 2.97743803 0 6.08432987-0.25890765 9.06176789 0.12945382 2.20071506 0.25890765 5.04869925-0.25890765 5.43706075 3.10689185-1.55344592-2.71853037-4.14252247-1.16508445-6.34323753-1.16508444zM5.3177205 515.6545422199999c2.58907653-16.18172839 7.1199605-31.58673383 18.51189728-44.01430124 14.88719013-16.44063605 34.30526419-23.30168889 55.66514569-23.43114271 97.21982419-0.38836148 194.43964839-0.38836148 291.7889264 0 12.16865975 0 24.46677333 1.29453827 36.37652544 5.04869926 31.71618765 9.96794469 50.61644642 35.34089482 50.61644642 68.73998222 0 95.7958321 0 191.46221037 0.12945382 287.25804247 0 8.28504494-1.03563061 16.31118222-3.10689185 24.33731951-7.50832197 28.99765728-31.71618765 50.61644642-61.49056789 54.75896888-5.30760691 0.77672297-10.61521383 1.4239921-16.05227457 1.42399211-2.58907653 0-5.82542222-0.77672297-6.73159902 3.10689185h-115.21390617c-1.68289975-2.71853037-4.2719763-1.16508445-6.34323753-1.16508444-53.20552297-0.12945383-106.41104592 0.25890765-159.61656889-0.25890766-19.15916642-0.12945383-37.80051753-3.3657995-54.62951506-13.8515595-16.18172839-10.09739852-25.63185778-24.72568098-30.68055704-42.71976297-1.03563061-3.49525333-0.25890765-7.37886815-2.45962271-10.61521383v-301.62741728c3.75416098-1.16508445 2.84798419-4.53088395 3.23634568-6.99050667z m51.13426172 299.03834075c0 10.48576 8.02613728 18.90025876 18.77080495 21.10097383 5.69596839 1.16508445 11.3919368 1.29453827 17.08790518 1.29453826h283.50388148c5.56651457 0 10.87412148-1.03563061 16.05227456-2.58907654 9.70903703-3.10689185 13.98101333-8.93231408 13.98101334-18.90025877v-291.91838025c0-10.61521383-4.91924543-17.21735902-15.01664395-20.58315852-5.17815309-1.68289975-10.48576-2.71853037-16.05227458-2.58907653-48.1568237 0.12945383-96.18419358 0.12945383-144.34101728 0.12945382-48.80409283 0-97.47873185-0.12945383-146.28282468 0.12945383-8.15559111 0-16.31118222 1.16508445-22.3955121 7.89668345-3.49525333 3.88361482-5.30760691 8.15559111-5.30760692 13.07483655-0.12945383 97.47873185-0.12945383 195.21637136 0 292.95401087zM3.24645925 519.27924939c0.12945383-11.52139061 3.3657995-22.3955121 8.28504494-32.49291063 13.46319803-27.70311902 37.41215605-40.13068642 66.79817483-40.38959407 96.44310124-0.77672297 192.88620247-0.25890765 289.19984987-0.25890766 12.03920592 0 24.07841185 1.03563061 35.85871013 3.88361482 35.08198717 8.67340642 56.44186864 34.17581037 56.70077629 70.42288198 0.64726914 95.53692445 0.25890765 191.07384889 0.25890766 286.61077334 0 6.34323753 0 12.68647506-1.16508445 19.02971258-3.88361482 20.97152-13.8515595 38.05942518-31.32782617 50.4869926-14.23992098 10.09739852-30.42164939 14.23992098-47.76846222 14.75773629-2.97743803 0.12945383-6.34323753-1.55344592-8.93231408 1.16508445 0.9061768-3.88361482 4.2719763-3.10689185 6.73159901-3.10689185 5.43706075 0 10.74466765-0.77672297 16.05227457-1.4239921 29.77438025-4.14252247 53.98224592-25.76131161 61.4905679-54.75896889 2.07126124-8.02613728 3.10689185-16.05227457 3.10689186-24.3373195-0.12945383-95.7958321 0-191.46221037-0.12945384-287.25804248 0-33.26963358-18.90025876-58.6425837-50.61644641-68.73998222-11.9097521-3.75416098-24.20786569-5.04869925-36.37652544-5.04869925-97.21982419-0.25890765-194.43964839-0.38836148-291.78892642 0-21.35988148 0.12945383-40.64850173 6.99050667-55.66514567 23.4311427-11.3919368 12.55702124-15.92282075 27.83257283-18.5118973 44.01430125-0.38836148 2.45962272 0.51781531 5.95487605-3.36579949 6.731599 1.68289975-0.12945383 1.16508445-1.68289975 1.16508443-2.71853036zM97.48884543-95.88533728000004c2.71853037 0.38836148 5.56651457 0.12945383 8.41449876 0.12945381h266.67488396c10.87412148 0 21.48933531 1.29453827 31.97509532 4.01306865 33.01072592 8.54395259 53.59388445 34.8230795 53.72333826 68.86943606 0.12945383 32.75181827 0 65.63309037 0 98.38490863v191.59166421c0 41.81358617-27.70311902 72.75305086-69.38725136 77.28393481-14.7577363 1.55344592-29.64492642 2.20071506-44.53211654 2.58907654-44.66157037 0.9061768-89.32314075-0.64726914-133.8552573-1.68289974-42.71976297-1.03563061-85.43952592-0.25890765-128.02983505-0.9061768-14.88719013-0.25890765-29.25656494-3.49525333-42.33140148-10.48576-17.6057205-9.32067555-28.35038815-23.94895803-33.26963358-43.23757828-0.9061768-3.62470717-0.12945383-8.41449876-4.7897916-10.35630616v-302.92195556c2.58907653-7.1199605 2.84798419-14.7577363 5.04869926-22.13660444 7.63777581-26.79694222 25.11404247-43.10812445 51.5226232-50.35753876 8.41449876-2.33016889 17.08790518-2.97743803 25.76131161-2.71853038 1.81235358 0 4.2719763 1.4239921 5.69596839-1.16508445h2.58907655c0.25890765 2.97743803 2.71853037 2.84798419 4.7897916 3.10689186z m-14.75773629 52.55825381c-15.79336691 0-26.79694222 8.54395259-26.66748839 26.53803458 0.51781531 94.88965531 0.25890765 189.77931061 0.12945382 284.79841975 0 15.27555161 9.0617679 23.43114272 23.69005037 23.94895803 96.57255506 3.10689185 193.0156563 0.64726914 289.58821136 1.03563061 8.28504494 0 17.34681283 0.51781531 25.37295012-3.88361481 6.99050667-3.88361482 11.00357531-9.32067555 11.00357531-17.73517432-0.12945383-48.54518518 0-97.09037037 0-145.63555555 0-48.1568237-0.25890765-96.18419358 0.12945382-144.34101729 0.12945383-15.66391309-10.09739852-22.78387358-24.20786568-24.98458864-11.13302914-1.68289975-22.00715061 0-33.01072592 0.12945383-88.67587161 0.25890765-177.3517432 0.12945383-266.02761481 0.12945381zM99.6895605-97.82714468999995c87.76969482 0.12945383 175.66884347 0.12945383 263.43853826 0 12.16865975 0 24.20786569 0.25890765 36.24707161 2.71853038 16.18172839 3.23634569 30.81001086 10.09739852 42.07249382 22.13660444 12.55702124 13.46319803 18.77080494 30.29219555 18.77080495 48.67463901 0.25890765 96.18419358 0.12945383 192.49784098 0.12945383 288.68203456 0 8.15559111-0.51781531 16.05227457-2.58907655 23.94895803-6.86105283 25.76131161-22.3955121 43.62593975-47.50955457 53.46443062-17.21735902 6.73159902-35.34089482 6.47269136-53.07606913 6.86105283-29.90383408 0.64726914-59.80766815 1.16508445-89.71150222-0.64726913-24.59622717-1.55344592-49.45136197-0.38836148-74.17704297-1.29453827-35.7292563-1.16508445-71.58796642-0.38836148-107.44667655-0.25890765-8.28504494 0-16.44063605-0.77672297-24.59622715-2.58907655-23.81950419-5.43706075-42.07249383-17.86462815-52.55825383-40.51904789-3.3657995-7.37886815-3.62470717-15.53445925-6.73159902-22.91332742 4.78979161 1.94180741 3.88361482 6.73159902 4.78979161 10.35630618 4.91924543 19.28862025 15.79336691 33.91690272 33.26963358 43.23757827 13.20429037 6.99050667 27.44421136 10.22685235 42.33140148 10.48576 42.71976297 0.64726914 85.3100721-0.12945383 128.02983507 0.90617678 44.66157037 1.03563061 89.19368691 2.58907653 133.85525728 1.68289975 14.88719013-0.25890765 29.77438025-0.9061768 44.53211653-2.58907653 41.68413235-4.53088395 69.25779753-35.47034864 69.38725137-77.28393482v-191.5916642c0-32.75181827 0.12945383-65.63309037 0-98.38490864-0.25890765-34.17581037-20.71261235-60.32548347-53.72333827-68.86943604-10.48576-2.71853037-21.10097383-4.01306864-31.97509532-4.01306865h-266.67488394c-2.84798419 0-5.56651457 0.12945383-8.41449876-0.12945384-2.07126124-0.25890765-4.53088395 0-4.78979161-3.10689184 1.94180741 2.45962272 4.78979161 1.03563061 7.1199605 1.03563062zM35.09210075 877.34853531c16.82899753 10.35630617 35.47034864 13.72210569 54.62951506 13.85155951 53.20552297 0.51781531 106.41104592 0.12945383 159.61656888 0.25890765 2.07126124 0 4.66033778-1.55344592 6.34323753 1.16508444-2.20071506-1.29453827-4.66033778-0.64726914-6.99050667-0.64726913-57.99531457-0.38836148-115.99062914 1.03563061-173.9859437-0.77672296-24.46677333-0.77672297-45.17938569-10.48576-60.19602963-30.55110321-8.15559111-10.87412148-11.78029827-23.30168889-12.55702124-36.63543309 2.33016889 3.10689185 1.55344592 6.99050667 2.45962272 10.61521383 5.17815309 17.99408197 14.49882864 32.62236445 30.68055705 42.71976296zM936.60855309 891.45900247c8.54395259 0.38836148 16.95845136-0.64726914 25.2434963-2.71853037 27.1853037-6.99050667 46.2150163-23.04278124 55.40623802-50.22808493 2.07126124-6.2137837 2.33016889-12.81592889 4.27197629-19.0297126v0.5178153c0.51781531 36.37652543-31.58673383 68.86943605-68.2221669 71.58796643-7.24941431 0.51781531-14.49882864-0.64726914-21.74824297 1.16508445 1.03563061-2.71853037 3.3657995-1.4239921 5.04869926-1.29453828zM84.28455506-97.82714468999995c-8.67340642-0.25890765-17.34681283 0.38836148-25.76131159 2.71853038-26.40858075 7.24941431-43.88484741 23.56059653-51.52262322 50.35753876-2.07126124 7.37886815-2.33016889 15.01664395-5.04869927 22.13660444 1.4239921-6.86105283 1.03563061-13.98101333 2.71853038-20.84206617 7.1199605-29.51547259 33.01072592-52.55825383 62.91456-54.37060741 7.50832197-0.51781531 15.01664395 0.77672297 22.39551211-1.03563062-1.4239921 2.45962272-3.88361482 1.16508445-5.69596841 1.03563062zM636.79348939 183.08766025c-15.92282075-0.25890765-26.40858075-10.74466765-26.40858075-25.89076543V-65.20478025c0-15.92282075 11.00357531-26.02021925 26.92639605-25.7613116 16.6995437 0.25890765 27.1853037 8.93231408 27.31475753 25.50240395 0.25890765 74.3064968 0.12945383 148.74244741 0 223.0489442 0 15.53445925-10.87412148 25.76131161-27.83257283 25.50240395zM964.3116721 182.82875259000002c-12.81592889 2.33016889-30.16274173-6.34323753-30.16274173-23.56059654-0.25890765-37.80051753 0-75.47158124 0-113.27209877v-112.62482963c0-2.07126124-0.12945383-4.40143013 0.51781532-6.34323752 4.2719763-12.16865975 18.64135111-20.97152 30.42164937-18.12353582 14.7577363 3.49525333 23.17223506 9.32067555 23.30168889 27.70311902 0.25890765 71.84687408 0.12945383 143.69374815 0.12945383 215.54062222-0.12945383 18.64135111-5.95487605 27.31475753-24.20786568 30.68055704zM844.30797431 105.28591013000005c-3.3657995 12.16865975-16.82899753 21.74824297-28.60929579 19.5475279-16.05227457-3.10689185-25.11404247-8.54395259-25.2434963-27.05584988-0.38836148-53.20552297-0.12945383-106.54049975-0.12945383-159.74602272 0-17.86462815 7.37886815-25.89076543 22.65441976-28.73874962 14.36937482-2.71853037 31.58673383 5.82542222 31.71618766 24.72568099v82.20318023 83.49771852c0 1.68289975 0 3.75416098-0.3883615 5.56651458zM808.44926419 341.53914468999994c-11.26248297-2.45962272-18.12353581-13.20429037-18.1235358-25.63185778V201.47010369999998c0-16.95845136 5.17815309-27.1853037 23.43114272-30.68055703 13.33374419-2.45962272 31.06891852 6.73159902 30.9394647 23.94895802-0.12945383 20.45370469 0 40.90740939 0 61.4905679 0 19.80643555-0.25890765 39.61287111 0 59.5487605 0.38836148 24.59622717-18.90025876 29.51547259-36.24707162 25.7613116zM654.39920987 338.17334517999996c-6.34323753 4.40143013-13.07483653 4.2719763-19.93588937 4.2719763-13.59265185 0-23.94895803-10.22685235-23.94895803-23.69005037v-33.65799506c0-11.65084445-0.12945383-23.30168889 0-34.95253333 0.12945383-5.95487605 1.68289975-11.26248297 6.34323753-15.92282075 6.73159902-6.73159902 14.49882864-8.67340642 23.56059653-8.41449877 12.81592889 0.38836148 24.3373195 11.52139061 24.33731952 24.20786569 0.12945383 22.91332741 0.25890765 45.69720098-0.12945383 68.61052839 0 7.89668347-3.10689185 14.62828247-10.22685235 19.5475279zM986.18936889 327.16976987c-2.84798419 8.02613728-12.68647506 15.27555161-23.17223506 15.53445927-18.51189728 0.64726914-30.5511032-10.22685235-29.12711111-29.51547261 0.64726914-9.0617679 0.12945383-18.12353581 0.12945381-27.1853037v-32.36345678c0-1.94180741 0-3.88361482 0.51781532-5.6959684 4.14252247-13.33374419 16.6995437-20.0653432 30.93946468-18.1235358 14.23992098 2.07126124 22.52496592 10.87412148 22.7838736 25.50240396 0.38836148 20.45370469 0.12945383 41.0368632 0.12945382 61.49056789 0 3.75416098-1.03563061 7.1199605-2.20071506 10.35630617zM304.87387653 713.07162864c-2.45962272 9.45012939-10.22685235 16.44063605-19.93588936 17.73517433-1.68289975 0.25890765-3.49525333 0.51781531-5.17815309 0.5178153-0.77672297 0-1.94180741-0.25890765-2.20071506 1.03563062h-37.28270222c-0.51781531-0.9061768-1.4239921-0.38836148-2.07126125-0.38836148-17.21735902 0-34.43471803 0.12945383-51.65207703-0.12945383-6.2137837 0-12.29811358-1.16508445-17.73517433-4.53088395-5.30760691-3.23634569-8.28504494-8.02613728-9.96794469-13.8515595-0.25890765-1.16508445 0-2.45962272-0.77672297-3.36579952v-97.7376395c1.29453827-0.25890765 0.9061768-1.4239921 1.03563064-2.20071506 0.9061768-5.30760691 2.33016889-10.22685235 5.95487603-14.23992099 4.78979161-5.30760691 11.13302914-7.50832197 17.99408198-7.63777581 31.45728-0.12945383 63.04401383-0.12945383 94.50129384 0 4.01306864 0 7.89668347 0.38836148 11.78029826 1.68289977 10.22685235 3.23634569 16.44063605 11.52139061 16.44063605 22.26605826v93.07730174c0.12945383 2.58907653-0.25890765 5.17815309-0.9061768 7.76722962zM866.05621728 723.0395733299999c-2.45962272 9.45012939-10.22685235 16.44063605-19.93588938 17.73517432-1.68289975 0.25890765-3.49525333 0.51781531-5.17815308 0.51781532-0.77672297 0-1.94180741-0.25890765-2.20071507 1.03563061h-37.28270222c-0.51781531-0.9061768-1.4239921-0.38836148-2.07126123-0.38836148-17.21735902 0-34.43471803 0.12945383-51.65207705-0.12945383-6.2137837 0-12.29811358-1.16508445-17.73517431-4.53088396-5.30760691-3.23634569-8.28504494-8.02613728-9.96794469-13.85155949-0.25890765-1.16508445 0-2.45962272-0.77672297-3.36579951v-97.7376395c1.29453827-0.25890765 0.9061768-1.4239921 1.03563062-2.20071506 0.9061768-5.30760691 2.33016889-10.22685235 5.95487605-14.239921 4.78979161-5.30760691 11.13302914-7.50832197 17.99408197-7.6377758 31.45728-0.12945383 63.04401383-0.12945383 94.50129383 0 4.01306864 0 7.89668347 0.38836148 11.78029828 1.68289975 10.22685235 3.23634569 16.44063605 11.52139061 16.44063605 22.26605827v93.07730173c0.25890765 2.58907653-0.25890765 5.30760691-0.9061768 7.76722963zM304.09715358 170.91900050000004c-2.45962272 9.45012939-10.22685235 16.44063605-19.93588939 17.73517432-1.68289975 0.25890765-3.49525333 0.51781531-5.17815308 0.51781531-0.77672297 0-1.94180741-0.25890765-2.20071506 1.03563062h-37.28270222c-0.51781531-0.9061768-1.4239921-0.38836148-2.07126124-0.3883615-17.21735902 0-34.43471803 0.12945383-51.65207704-0.12945382-6.2137837 0-12.29811358-1.16508445-17.73517431-4.53088395-5.30760691-3.23634569-8.28504494-8.02613728-9.96794471-13.85155951-0.25890765-1.16508445 0-2.45962272-0.77672295-3.3657995v-97.7376395c1.29453827-0.25890765 0.9061768-1.4239921 1.03563061-2.20071507 0.9061768-5.30760691 2.33016889-10.22685235 5.95487606-14.23992099 4.78979161-5.30760691 11.13302914-7.50832197 17.99408197-7.6377758 31.45728-0.12945383 63.04401383-0.12945383 94.50129383 0 4.01306864 0 7.89668347 0.38836148 11.78029826 1.68289975 10.22685235 3.23634569 16.44063605 11.52139061 16.44063606 22.26605828v93.07730172c0.12945383 2.58907653-0.25890765 5.17815309-0.90617679 7.76722964z"  horiz-adv-x="1024" />

    
    <glyph glyph-name="jiatianjiakuangxuanduoxuan-" unicode="&#59116;" d="M874.666667 810.666667a64 64 0 0 0 64-64v-725.333334a64 64 0 0 0-64-64H149.333333a64 64 0 0 0-64 64V746.666667a64 64 0 0 0 64 64h725.333334z m-362.666667-181.333334a32 32 0 0 1-32-32v-181.333333H298.666667a32 32 0 0 1 0-64h181.333333V170.666667a32 32 0 0 1 64 0v181.333333H725.333333a32 32 0 0 1 0 64h-181.333333V597.333333a32 32 0 0 1-32 32z"  horiz-adv-x="1024" />

    
    <glyph glyph-name="qunzu1" unicode="&#59039;" d="M516.266667 725.333333c87.466667 0 166.4-57.6 189.866666-140.8 25.6-83.2-8.533333-172.8-83.2-219.733333 125.866667-42.666667 215.466667-160 215.466667-298.666667 0-6.4-2.133333-12.8-6.4-17.066666s-12.8-6.4-19.2-6.4H217.6c-6.4 0-12.8 2.133333-17.066667 6.4-4.266667 4.266667-8.533333 10.666667-8.533333 17.066666 0 138.666667 89.6 256 215.466667 298.666667-74.666667 46.933333-108.8 136.533333-83.2 219.733333S426.666667 725.333333 516.266667 725.333333zM874.666667 576c25.6-64 2.133333-136.533333-55.466667-174.933333 85.333333-40.533333 140.8-125.866667 140.8-219.733334 0-12.8-10.666667-23.466667-25.6-23.466666h-64c-25.6 89.6-83.2 166.4-164.266667 213.333333 34.133333 42.666667 53.333333 96 53.333334 151.466667 0 51.2-17.066667 102.4-49.066667 145.066666 72.533333 8.533333 138.666667-27.733333 164.266667-91.733333z m-563.2 89.6c-32-42.666667-49.066667-91.733333-49.066667-145.066667 0-57.6 19.2-108.8 53.333333-151.466666-81.066667-49.066667-138.666667-125.866667-164.266666-213.333334h-64c-12.8 0-25.6 10.666667-25.6 23.466667 0 93.866667 55.466667 179.2 140.8 219.733333C147.2 439.466667 123.733333 512 149.333333 576s91.733333 100.266667 162.133334 89.6z"  horiz-adv-x="1024" />

    
    <glyph glyph-name="fenxiang" unicode="&#58895;" d="M853.578 234.28499999999997c-65.68 0-119.381-35.158-144.39-89.736L391.713 279.59000000000003c18.518 28.693 28.692 63.85 28.692 101.764 0 15.711-1.854 31.448-5.563 46.258l202.703 157.269c26.864-20.348 61.12-32.376 99.059-32.376 91.641 0 160.128 68.46 160.128 159.097 0 90.663-68.512 159.124-160.128 159.124-91.641 0-159.2-68.46-159.2-159.124 0-23.129 4.636-44.404 12.028-62.897L382.44 505.32c-37.012 55.505-98.106 94.372-167.52 94.372A204.97 204.97 0 0 1 9.438 394.309a204.97 204.97 0 0 1 205.485-205.356c42.575 0 82.369 11.076 114.77 31.423l364.711-155.388c4.636-86.027 71.268-149.851 159.175-149.851 91.667 0 159.226 68.435 159.226 159.097 0 90.663-68.512 160.05-159.2 160.05z"  horiz-adv-x="1024" />

    
    </font>
</defs>
</svg>
